<svg width="32" height="20" viewBox="0 0 32 20" fill="none" xmlns="http://www.w3.org/2000/svg">
<path d="M6.52321 8.41808C8.09334 8.41808 9.3662 6.9691 9.3662 5.1817C9.3662 3.39429 8.09334 1.94531 6.52321 1.94531C4.95307 1.94531 3.68024 3.39429 3.68024 5.1817C3.68024 6.9691 4.95307 8.41808 6.52321 8.41808Z" stroke="#3F78AE" stroke-width="1.45324" stroke-miterlimit="10"/>
<path d="M9.13103 10.1982C8.40447 10.8215 7.47801 11.1642 6.51978 11.1642C5.56155 11.1642 4.63509 10.8215 3.90853 10.1982C2.60449 11.0658 1.54669 12.2542 0.83728 13.6485C1.44549 14.5894 2.28604 15.3584 3.27815 15.8817C4.27027 16.4049 5.38061 16.6649 6.50249 16.6365H6.53707C7.65999 16.6654 8.77151 16.4058 9.76483 15.8825C10.7581 15.3592 11.5999 14.59 12.2092 13.6485C11.4976 12.2535 10.4374 11.0652 9.13103 10.1982Z" stroke="#3F78AE" stroke-width="1.45324" stroke-miterlimit="10"/>
<path d="M25.1859 8.41808C26.756 8.41808 28.0289 6.9691 28.0289 5.1817C28.0289 3.39429 26.756 1.94531 25.1859 1.94531C23.6158 1.94531 22.3429 3.39429 22.3429 5.1817C22.3429 6.9691 23.6158 8.41808 25.1859 8.41808Z" stroke="#3F78AE" stroke-width="1.45324" stroke-miterlimit="10"/>
<path d="M27.7937 10.1982C27.0671 10.8215 26.1407 11.1642 25.1824 11.1642C24.2242 11.1642 23.2977 10.8215 22.5712 10.1982C21.2671 11.0658 20.2094 12.2542 19.4999 13.6485C20.1081 14.5894 20.9487 15.3584 21.9408 15.8817C22.9329 16.4049 24.0433 16.6649 25.1651 16.6365C26.2881 16.6654 27.3996 16.4058 28.3929 15.8825C29.3862 15.3592 30.2279 14.59 30.8373 13.6485C30.1353 12.2576 29.0874 11.0697 27.7937 10.1982Z" stroke="#3F78AE" stroke-width="1.45324" stroke-miterlimit="10"/>
<path d="M6.52321 8.41808C8.09334 8.41808 9.3662 6.9691 9.3662 5.1817C9.3662 3.39429 8.09334 1.94531 6.52321 1.94531C4.95307 1.94531 3.68024 3.39429 3.68024 5.1817C3.68024 6.9691 4.95307 8.41808 6.52321 8.41808Z" fill="#83AFDD"/>
<path d="M9.13103 10.1982C8.40447 10.8215 7.47801 11.1642 6.51978 11.1642C5.56155 11.1642 4.63509 10.8215 3.90853 10.1982C2.60449 11.0658 1.54669 12.2542 0.83728 13.6485C1.44549 14.5894 2.28604 15.3584 3.27815 15.8817C4.27027 16.4049 5.38061 16.6649 6.50249 16.6365H6.53707C7.65999 16.6654 8.77151 16.4058 9.76483 15.8825C10.7581 15.3592 11.5999 14.59 12.2092 13.6485C11.4976 12.2535 10.4374 11.0652 9.13103 10.1982Z" fill="#83AFDD"/>
<path d="M25.1859 8.41808C26.756 8.41808 28.0289 6.9691 28.0289 5.1817C28.0289 3.39429 26.756 1.94531 25.1859 1.94531C23.6158 1.94531 22.3429 3.39429 22.3429 5.1817C22.3429 6.9691 23.6158 8.41808 25.1859 8.41808Z" fill="#83AFDD"/>
<path d="M27.7937 10.1982C27.0671 10.8215 26.1407 11.1642 25.1824 11.1642C24.2242 11.1642 23.2977 10.8215 22.5712 10.1982C21.2671 11.0658 20.2094 12.2542 19.4999 13.6485C20.1081 14.5894 20.9487 15.3584 21.9408 15.8817C22.9329 16.4049 24.0433 16.6649 25.1651 16.6365C26.2881 16.6654 27.3996 16.4058 28.3929 15.8825C29.3862 15.3592 30.2279 14.59 30.8373 13.6485C30.1353 12.2576 29.0874 11.0697 27.7937 10.1982Z" fill="#83AFDD"/>
<path d="M16.1174 8.14961C14.146 8.14961 12.5412 6.32095 12.5412 4.07826C12.5412 1.83556 14.146 0 16.1174 0C18.0888 0 19.6936 1.82866 19.6936 4.07826C19.6936 6.32785 18.0888 8.14961 16.1174 8.14961Z" fill="#C35A9E"/>
<path d="M16.0897 19.9977C14.2808 20.0387 12.4921 19.6114 10.898 18.7576C9.30388 17.9038 7.95867 16.6526 6.99351 15.1258L6.6615 14.5324L6.99351 13.932C8.11024 11.7312 9.77819 9.85573 11.8356 8.48747L12.3682 8.15625L12.8593 8.56338C13.7618 9.33815 14.9129 9.76425 16.1035 9.76425C17.2941 9.76425 18.4452 9.33815 19.3477 8.56338L19.8388 8.15625L20.3784 8.48747C22.4345 9.85715 24.1021 11.7323 25.2204 13.932L25.5524 14.5324L25.2204 15.1258C24.2543 16.6516 22.9089 17.9022 21.315 18.7558C19.7211 19.6095 17.9329 20.0373 16.1243 19.9977H16.0897Z" fill="white"/>
<path d="M19.9289 9.46094C18.8707 10.3697 17.5207 10.8696 16.1244 10.8696C14.7281 10.8696 13.3781 10.3697 12.3199 9.46094C10.4089 10.7357 8.86207 12.4833 7.83063 14.5329C8.72213 15.9095 9.95442 17.0334 11.4085 17.7961C12.8625 18.5589 14.4892 18.9347 16.1313 18.8872H16.1866C17.8288 18.9347 19.4554 18.5589 20.9095 17.7961C22.3635 17.0334 23.5958 15.9095 24.4873 14.5329C23.4366 12.475 21.8653 10.7266 19.9289 9.46094Z" fill="#C35A9E"/>
<path d="M16.0898 18.2381C14.6143 18.2752 13.1517 17.9557 11.8268 17.3068C10.5019 16.6579 9.3539 15.699 8.48083 14.5118C9.40063 12.8224 10.6861 11.3585 12.2438 10.2266C13.3484 11.0682 14.6998 11.5242 16.0898 11.5242C17.4797 11.5242 18.8312 11.0682 19.9358 10.2266C21.4935 11.3585 22.7789 12.8224 23.6987 14.5118C22.8323 15.706 21.6857 16.6701 20.3592 17.3197C19.0327 17.9693 17.5668 18.2847 16.0898 18.2381Z" fill="#C35A9E"/>
</svg>
