<svg width="20" height="24" viewBox="0 0 20 24" fill="none" xmlns="http://www.w3.org/2000/svg">
<path d="M12.416 17.5493H1.2832C1.15547 17.5493 1.02899 17.5243 0.910978 17.4757C0.79297 17.4272 0.685744 17.3561 0.595425 17.2664C0.505105 17.1767 0.433465 17.0702 0.384585 16.953C0.335704 16.8358 0.310547 16.7102 0.310547 16.5833V1.26771C0.310547 1.01153 0.413016 0.765833 0.595425 0.584681C0.777833 0.40353 1.02523 0.301758 1.2832 0.301758H12.416C12.674 0.301758 12.9214 0.40353 13.1038 0.584681C13.2862 0.765833 13.3887 1.01153 13.3887 1.26771V16.5833C13.3871 16.839 13.2842 17.0838 13.1021 17.2647C12.92 17.4455 12.6735 17.5478 12.416 17.5493Z" fill="#83AFDD"/>
<path d="M12.416 17.8527H1.2832C0.944353 17.8512 0.619736 17.7172 0.379587 17.4798C0.139437 17.2424 0.003077 16.9206 0 16.5841V1.26854C0.003077 0.932039 0.139437 0.610274 0.379587 0.372868C0.619736 0.135463 0.944353 0.00151573 1.2832 0H12.416C12.7549 0.00151573 13.0795 0.135463 13.3196 0.372868C13.5598 0.610274 13.6962 0.932039 13.6992 1.26854V16.5841C13.6962 16.9206 13.5598 17.2424 13.3196 17.4798C13.0795 17.7172 12.7549 17.8512 12.416 17.8527ZM1.2832 0.605163C1.1055 0.605156 0.934995 0.674859 0.808794 0.7991C0.682594 0.923341 0.610917 1.09207 0.609372 1.26854V16.5841C0.610917 16.7606 0.682594 16.9293 0.808794 17.0536C0.934995 17.1778 1.1055 17.2475 1.2832 17.2475H12.416C12.5927 17.246 12.7617 17.1756 12.8867 17.0515C13.0116 16.9274 13.0825 16.7596 13.084 16.5841V1.26854C13.0825 1.09307 13.0116 0.92522 12.8867 0.801142C12.7617 0.677065 12.5927 0.606682 12.416 0.605163H1.2832Z" fill="#3F78AE"/>
<path d="M10.6875 9.15334H2.85934C2.73521 9.11984 2.62563 9.04671 2.54751 8.94523C2.46939 8.84375 2.42706 8.71955 2.42706 8.5918C2.42706 8.46406 2.46939 8.33988 2.54751 8.2384C2.62563 8.13692 2.73521 8.06377 2.85934 8.03027H10.705C10.8604 8.03027 11.0095 8.09159 11.1194 8.20072C11.2293 8.30984 11.291 8.45784 11.291 8.61217C11.2805 8.7624 11.2117 8.90273 11.0991 9.00365C10.9866 9.10457 10.839 9.15822 10.6875 9.15334Z" fill="white"/>
<path d="M10.6877 12.0332H2.85952C2.73539 11.9997 2.62582 11.9266 2.5477 11.8251C2.46957 11.7236 2.42725 11.5994 2.42725 11.4717C2.42725 11.3439 2.46957 11.2197 2.5477 11.1183C2.62582 11.0168 2.73539 10.9437 2.85952 10.9102H10.7052C10.8606 10.9102 11.0097 10.9715 11.1196 11.0806C11.2294 11.1897 11.2912 11.3377 11.2912 11.4921C11.2806 11.6423 11.2119 11.7826 11.0993 11.8835C10.9868 11.9844 10.8392 12.0381 10.6877 12.0332Z" fill="white"/>
<path d="M10.6875 14.9141H2.85934C2.73521 14.8806 2.62563 14.8075 2.54751 14.706C2.46939 14.6045 2.42706 14.4803 2.42706 14.3525C2.42706 14.2248 2.46939 14.1006 2.54751 13.9991C2.62563 13.8977 2.73521 13.8245 2.85934 13.791H10.705C10.8604 13.791 11.0095 13.8523 11.1194 13.9615C11.2293 14.0706 11.291 14.2186 11.291 14.3729C11.2805 14.5231 11.2117 14.6635 11.0991 14.7644C10.9866 14.8653 10.839 14.919 10.6875 14.9141Z" fill="white"/>
<path d="M4.1543 4.24165C4.38607 4.24165 4.61265 4.17341 4.80536 4.04553C4.99807 3.91765 5.14828 3.73588 5.23697 3.52323C5.32567 3.31057 5.34887 3.07657 5.30365 2.85081C5.25844 2.62506 5.14683 2.41768 4.98294 2.25492C4.81905 2.09216 4.61024 1.98133 4.38292 1.93643C4.1556 1.89152 3.91997 1.91456 3.70584 2.00265C3.49171 2.09073 3.30868 2.23991 3.17991 2.43129C3.05115 2.62268 2.98242 2.84767 2.98242 3.07785C2.98242 3.38651 3.10589 3.68253 3.32566 3.90078C3.54543 4.11904 3.8435 4.24165 4.1543 4.24165Z" fill="white"/>
<path d="M5.408 4.24219C5.2563 4.40677 5.07324 4.53986 4.86942 4.63372C4.66559 4.72758 4.44504 4.78037 4.22054 4.78903C3.99603 4.79769 3.77202 4.76205 3.56148 4.68417C3.35094 4.60629 3.15804 4.4877 2.99394 4.33529C2.408 4.98702 2.32011 6.12173 2.61308 6.31957C3.6673 6.69973 4.82254 6.69973 5.87676 6.31957C6.16973 6.10427 6.04668 4.87646 5.408 4.24219Z" fill="white"/>
<path d="M18 9.90944C17.9707 10.0957 17.9531 10.2818 17.918 10.4622C17.7589 11.312 17.4215 12.1189 16.9277 12.8306C16.3668 13.6521 15.6832 14.384 14.9004 15.0011C14.2121 15.5526 13.4632 16.025 12.668 16.4093C12.6375 16.4297 12.6003 16.4374 12.5641 16.4309C12.528 16.4244 12.4959 16.4041 12.4746 16.3743C11.6543 15.5519 10.8301 14.7353 10.0019 13.9246C9.97031 13.8993 9.94922 13.8634 9.94273 13.8236C9.93624 13.7838 9.9448 13.7431 9.96678 13.7092C10.7171 12.1416 11.8341 10.7748 13.2246 9.72323C13.9936 9.13312 14.8869 8.72333 15.8379 8.52452C16.4881 8.39938 17.1564 8.39938 17.8066 8.52452C17.8769 8.52452 17.9004 8.56525 17.9121 8.63508C17.9121 8.83293 17.9707 9.03077 18 9.21698V9.90944ZM15.2637 12.237C15.514 12.237 15.7587 12.1633 15.9668 12.0252C16.1749 11.8871 16.3372 11.6908 16.4329 11.4611C16.5287 11.2315 16.5538 10.9787 16.505 10.7349C16.4561 10.4911 16.3356 10.2672 16.1586 10.0914C15.9816 9.9156 15.7561 9.79588 15.5106 9.74738C15.2651 9.69889 15.0106 9.72378 14.7793 9.81891C14.5481 9.91405 14.3504 10.0751 14.2113 10.2818C14.0723 10.4885 13.998 10.7315 13.998 10.9801C13.9957 11.1467 14.0267 11.312 14.0893 11.4665C14.1518 11.621 14.2447 11.7616 14.3625 11.8802C14.4802 11.9988 14.6205 12.0929 14.7752 12.1572C14.9299 12.2214 15.096 12.2545 15.2637 12.2545V12.237Z" fill="#C35A9E" stroke="white" stroke-width="2.48921"/>
<path d="M9.83789 18.0156C9.8353 18.2385 9.77388 18.4569 9.65975 18.6488C9.54562 18.8408 9.38279 18.9997 9.1875 19.1096C8.86173 19.3038 8.50508 19.4415 8.13281 19.5169L6.92578 19.8544C6.86479 19.8782 6.79826 19.8842 6.73394 19.8718C6.66962 19.8595 6.61017 19.8292 6.5625 19.7846C6.5146 19.7366 6.48228 19.6755 6.46975 19.6091C6.45721 19.5427 6.46503 19.4741 6.49218 19.4122L6.94922 17.7887C7.02868 17.5115 7.16205 17.2526 7.3418 17.0264C7.46722 16.8732 7.62456 16.7487 7.80301 16.6617C7.98147 16.5746 8.17678 16.5269 8.37555 16.5219C8.57432 16.5169 8.77182 16.5548 8.95446 16.6328C9.1371 16.7109 9.30056 16.8273 9.43359 16.974C9.56726 17.1123 9.67185 17.2756 9.74126 17.4544C9.81068 17.6333 9.84353 17.824 9.83789 18.0156Z" fill="#C35A9E" stroke="white" stroke-width="2.48921"/>
<path d="M9.43946 13.2611C8.37284 13.0398 7.2717 13.0398 6.20508 13.2611C6.75613 12.654 7.43676 12.1769 8.19726 11.8645C8.95092 11.5579 9.76247 11.417 10.5762 11.4514L9.43946 13.2611Z" fill="#C35A9E" stroke="white" stroke-width="2.48921"/>
<path d="M12.9902 19.9999C13.1949 19.0045 13.2068 17.9796 13.0254 16.9798L14.8184 15.8975C14.8226 16.6707 14.6619 17.436 14.3468 18.1431C14.0317 18.8502 13.5693 19.483 12.9902 19.9999Z" fill="#C35A9E" stroke="white" stroke-width="2.48921"/>
<path d="M12.0117 16.8521L11.4258 17.434L8.95898 14.9784L9.54492 14.3965L12.0117 16.8521Z" fill="#C35A9E" stroke="white" stroke-width="2.48921"/>
<path d="M15.2637 11.6146C15.142 11.6146 15.023 11.5787 14.9219 11.5116C14.8207 11.4445 14.7418 11.349 14.6953 11.2374C14.6487 11.1257 14.6365 11.0029 14.6603 10.8844C14.684 10.7659 14.7426 10.657 14.8286 10.5715C14.9147 10.4861 15.0243 10.4279 15.1436 10.4043C15.263 10.3807 15.3867 10.3928 15.4991 10.4391C15.6115 10.4853 15.7076 10.5636 15.7752 10.6641C15.8428 10.7646 15.8789 10.8827 15.8789 11.0036C15.8774 11.1652 15.8121 11.3197 15.697 11.4339C15.582 11.5482 15.4264 11.6131 15.2637 11.6146Z" fill="#C35A9E" stroke="white" stroke-width="2.48921"/>
<path d="M18 9.90944C17.9707 10.0957 17.9531 10.2818 17.918 10.4622C17.7589 11.312 17.4215 12.1189 16.9277 12.8306C16.3668 13.6521 15.6832 14.384 14.9004 15.0011C14.2121 15.5526 13.4632 16.025 12.668 16.4093C12.6375 16.4297 12.6003 16.4374 12.5641 16.4309C12.528 16.4244 12.4959 16.4041 12.4746 16.3743C11.6543 15.5519 10.8301 14.7353 10.0019 13.9246C9.97031 13.8993 9.94922 13.8634 9.94273 13.8236C9.93624 13.7838 9.9448 13.7431 9.96678 13.7092C10.7171 12.1416 11.8341 10.7748 13.2246 9.72323C13.9936 9.13312 14.8869 8.72333 15.8379 8.52452C16.4881 8.39938 17.1564 8.39938 17.8066 8.52452C17.8769 8.52452 17.9004 8.56525 17.9121 8.63508C17.9121 8.83293 17.9707 9.03077 18 9.21698V9.90944ZM15.2637 12.237C15.514 12.237 15.7587 12.1633 15.9668 12.0252C16.1749 11.8871 16.3372 11.6908 16.4329 11.4611C16.5287 11.2315 16.5538 10.9787 16.505 10.7349C16.4561 10.4911 16.3356 10.2672 16.1586 10.0914C15.9816 9.9156 15.7561 9.79588 15.5106 9.74738C15.2651 9.69889 15.0106 9.72378 14.7793 9.81891C14.5481 9.91405 14.3504 10.0751 14.2113 10.2818C14.0723 10.4885 13.998 10.7315 13.998 10.9801C13.9957 11.1467 14.0267 11.312 14.0893 11.4665C14.1518 11.621 14.2447 11.7616 14.3625 11.8802C14.4802 11.9988 14.6205 12.0929 14.7752 12.1572C14.9299 12.2214 15.096 12.2545 15.2637 12.2545V12.237Z" fill="#C35A9E"/>
<path d="M9.83789 18.0156C9.8353 18.2385 9.77388 18.4569 9.65975 18.6488C9.54562 18.8408 9.38279 18.9997 9.1875 19.1096C8.86173 19.3038 8.50508 19.4415 8.13281 19.5169L6.92578 19.8544C6.86479 19.8782 6.79826 19.8842 6.73394 19.8718C6.66962 19.8595 6.61017 19.8292 6.5625 19.7846C6.5146 19.7366 6.48228 19.6755 6.46975 19.6091C6.45721 19.5427 6.46503 19.4741 6.49218 19.4122L6.94922 17.7887C7.02868 17.5115 7.16205 17.2526 7.3418 17.0264C7.46722 16.8732 7.62456 16.7487 7.80301 16.6617C7.98147 16.5746 8.17678 16.5269 8.37555 16.5219C8.57432 16.5169 8.77182 16.5548 8.95446 16.6328C9.1371 16.7109 9.30056 16.8273 9.43359 16.974C9.56726 17.1123 9.67185 17.2756 9.74126 17.4544C9.81068 17.6333 9.84353 17.824 9.83789 18.0156Z" fill="#C35A9E"/>
<path d="M9.43946 13.2611C8.37284 13.0398 7.2717 13.0398 6.20508 13.2611C6.75613 12.654 7.43676 12.1769 8.19726 11.8645C8.95092 11.5579 9.76247 11.417 10.5762 11.4514L9.43946 13.2611Z" fill="#C35A9E"/>
<path d="M12.9902 19.9999C13.1949 19.0045 13.2068 17.9796 13.0254 16.9798L14.8184 15.8975C14.8226 16.6707 14.6619 17.436 14.3468 18.1431C14.0317 18.8502 13.5693 19.483 12.9902 19.9999Z" fill="#C35A9E"/>
<path d="M12.0117 16.8521L11.4258 17.434L8.95898 14.9784L9.54492 14.3965L12.0117 16.8521Z" fill="#C35A9E"/>
<path d="M15.2637 11.6146C15.142 11.6146 15.023 11.5787 14.9219 11.5116C14.8207 11.4445 14.7418 11.349 14.6953 11.2374C14.6487 11.1257 14.6365 11.0029 14.6603 10.8844C14.684 10.7659 14.7426 10.657 14.8286 10.5715C14.9147 10.4861 15.0243 10.4279 15.1436 10.4043C15.263 10.3807 15.3867 10.3928 15.4991 10.4391C15.6115 10.4853 15.7076 10.5636 15.7752 10.6641C15.8428 10.7646 15.8789 10.8827 15.8789 11.0036C15.8774 11.1652 15.8121 11.3197 15.697 11.4339C15.582 11.5482 15.4264 11.6131 15.2637 11.6146Z" fill="#C35A9E"/>
</svg>
