<svg width="15" height="20" viewBox="0 0 15 20" fill="none" xmlns="http://www.w3.org/2000/svg">
<path d="M14.6628 3.29046V18.5783C14.6611 18.8648 14.5475 19.1391 14.3465 19.3416C14.1455 19.5442 13.8734 19.6588 13.5891 19.6604H1.40434C1.26364 19.6604 1.12433 19.6324 0.994413 19.5779C0.864499 19.5235 0.746548 19.4436 0.647347 19.3431C0.548146 19.2425 0.469663 19.1232 0.416389 18.9919C0.363114 18.8607 0.336109 18.7201 0.336932 18.5783V1.42195C0.336109 1.28014 0.363114 1.13958 0.416389 1.00833C0.469663 0.877081 0.548146 0.757739 0.647347 0.657173C0.746548 0.556607 0.864499 0.476801 0.994413 0.422344C1.12433 0.367886 1.26364 0.339841 1.40434 0.339844H11.7539L14.6628 3.29046Z" fill="#84AFDD"/>
<path d="M11.4232 0H1.40449C1.03193 0.00330483 0.675653 0.154359 0.412787 0.420469C0.149922 0.686579 0.00162687 1.04632 0 1.42182V18.5782C0.00162687 18.9537 0.149922 19.3134 0.412787 19.5795C0.675653 19.8456 1.03193 19.9967 1.40449 20H13.5893C13.9218 20.0009 14.2434 19.8802 14.4944 19.6603C14.6501 19.5269 14.7754 19.3611 14.8616 19.1743C14.9478 18.9875 14.9929 18.7842 14.9938 18.5782V3.63007L11.4232 0ZM14.3259 4.16483V18.5782C14.3242 18.7746 14.2461 18.9624 14.1083 19.1013C13.9705 19.2402 13.7841 19.3189 13.5893 19.3205H1.40449C1.21014 19.3173 1.02466 19.238 0.88722 19.0995C0.749775 18.961 0.671133 18.7741 0.66792 18.5782V1.42182C0.671133 1.22594 0.749775 1.039 0.88722 0.900475C1.02466 0.761949 1.21014 0.682689 1.40449 0.679451H10.4744V4.16483H14.3259ZM12.0974 0.679451H10.4744V4.16483H14.3259V2.9506L12.0974 0.679451ZM11.4295 0L10.4807 4.16483L15 3.63007L11.4295 0Z" fill="#3E78AF"/>
<path d="M6.35484 10.5181C8.60949 10.5181 10.4372 8.67595 10.4372 6.40357C10.4372 4.13119 8.60949 2.28906 6.35484 2.28906C4.1002 2.28906 2.27246 4.13119 2.27246 6.40357C2.27246 8.67595 4.1002 10.5181 6.35484 10.5181Z" fill="#C35A9E" stroke="white" stroke-width="1.04317"/>
<path d="M4.94993 2.05078C3.95061 2.37652 3.09386 3.04064 2.52499 3.93047C1.95612 4.8203 1.71016 5.88106 1.82883 6.93283L6.3357 6.40436L4.94993 2.05078Z" fill="#C35A9E" stroke="white" stroke-width="1.2518"/>
<path d="M12.1658 14.9356H3.68886C3.64928 14.9348 3.60993 14.942 3.57319 14.9568C3.53645 14.9717 3.5031 14.9939 3.4751 15.0221C3.44711 15.0504 3.42507 15.084 3.41032 15.121C3.39556 15.1581 3.38838 15.1977 3.38923 15.2376C3.38923 15.3177 3.4208 15.3945 3.47699 15.4511C3.53318 15.5078 3.60939 15.5396 3.68886 15.5396H12.1658C12.2447 15.538 12.32 15.5056 12.3759 15.4494C12.4317 15.3931 12.4638 15.3172 12.4654 15.2376C12.4654 15.1979 12.4576 15.1587 12.4426 15.122C12.4275 15.0854 12.4054 15.0521 12.3776 15.0241C12.3498 14.996 12.3168 14.9738 12.2804 14.9586C12.2441 14.9434 12.2051 14.9356 12.1658 14.9356Z" fill="white"/>
<path d="M12.1658 13.1045H3.68886C3.60939 13.1045 3.53318 13.1363 3.47699 13.1929C3.4208 13.2496 3.38923 13.3264 3.38923 13.4065C3.38838 13.4464 3.39556 13.486 3.41032 13.523C3.42507 13.5601 3.44711 13.5937 3.4751 13.6219C3.5031 13.6501 3.53645 13.6723 3.57319 13.6872C3.60993 13.7021 3.64928 13.7093 3.68886 13.7085H12.1658C12.2452 13.7085 12.3214 13.6766 12.3776 13.62C12.4338 13.5634 12.4654 13.4866 12.4654 13.4065C12.4638 13.3269 12.4317 13.251 12.3759 13.1947C12.32 13.1384 12.2447 13.1061 12.1658 13.1045Z" fill="white"/>
</svg>
