<svg width="26" height="21" viewBox="0 0 26 21" fill="none" xmlns="http://www.w3.org/2000/svg">
<path d="M10.3425 15.3066C10.5806 14.5635 10.8128 13.8264 11.0509 13.0953C11.6938 13.4189 12.3367 13.7485 13.0034 14.0362C13.4069 14.2228 13.8276 14.3693 14.2594 14.4736C14.6003 14.547 14.9102 14.7249 15.1464 14.983C15.3636 15.2585 15.5033 15.5875 15.5512 15.9359C15.6908 16.7911 15.6908 17.6636 15.5512 18.5188C15.5562 18.5344 15.5562 18.5512 15.5512 18.5668H15.5155C14.2954 19.2142 12.9878 19.6786 11.6343 19.9452C10.0997 20.2607 8.53083 20.3736 6.9673 20.2808C4.801 20.1625 2.6809 19.6039 0.73476 18.6387C0.668129 18.614 0.608771 18.5728 0.562143 18.5188C0.532838 18.4699 0.516436 18.4142 0.514511 18.357V18.1713C0.396519 17.3347 0.416636 16.4842 0.574042 15.6542C0.644431 15.3634 0.79028 15.0966 0.996683 14.8812C1.21149 14.6668 1.48163 14.5174 1.77649 14.4497C2.91869 14.1286 4.00923 13.6442 5.01479 13.0114C5.11599 13.323 5.21719 13.6107 5.31243 13.9403C5.74103 15.2827 6.16369 16.6191 6.59229 18.0035L6.86015 18.8724L7.259 18.0574L7.28875 18.0035V17.9495C7.31366 17.9003 7.33168 17.8479 7.34232 17.7937C7.38399 17.6679 7.43162 17.542 7.47924 17.4042C7.61616 17.0206 7.76497 16.6131 7.87807 16.2056C7.90429 16.0993 7.90429 15.9882 7.87807 15.882C7.86357 15.7831 7.82694 15.6888 7.77092 15.6063C7.54207 15.2875 7.37633 14.9274 7.28279 14.5456C7.26361 14.4528 7.27403 14.3563 7.31257 14.2699C7.35514 14.2051 7.418 14.1566 7.49114 14.132C7.8107 14.0061 8.16571 14.0061 8.48526 14.132C8.53017 14.1457 8.57192 14.1682 8.60803 14.1983C8.64415 14.2284 8.6739 14.2656 8.69554 14.3074C8.71718 14.3493 8.73026 14.3952 8.73401 14.4423C8.73777 14.4893 8.73212 14.5367 8.71741 14.5815C8.62249 14.9584 8.45459 15.3128 8.22334 15.6243C8.17607 15.6998 8.14185 15.7829 8.12213 15.87C8.08762 15.9751 8.08762 16.0885 8.12213 16.1936C8.32453 16.7929 8.53884 17.3922 8.80076 17.9915L9.18172 18.8724L9.47936 17.9615C9.78295 17.0386 10.0747 16.1337 10.3485 15.2407L10.3425 15.3066ZM12.045 6.76075C12.0502 6.82857 12.0502 6.89668 12.045 6.9645C12.0109 7.58828 11.8552 8.19919 11.5866 8.76238L11.545 8.84029H11.4259H11.1045L11.039 9.16391C10.9333 10.1055 10.4626 10.967 9.72939 11.5611C9.22521 11.9669 8.58735 12.166 7.94356 12.1184C7.29764 12.1014 6.67318 11.8814 6.15773 11.4892C5.47632 10.8952 5.03564 10.0698 4.91957 9.16991L4.85408 8.80433L4.49097 8.87624V8.84629C4.46808 8.81745 4.44997 8.78506 4.43738 8.7504C4.147 8.19545 3.99001 7.57966 3.97902 6.95252C3.97016 6.8849 3.97016 6.81639 3.97902 6.74877C4.04091 6.72822 4.10475 6.71416 4.16951 6.70681L4.53858 6.66486L4.48501 6.2933C4.48501 6.16146 4.44929 6.0356 4.42548 5.91574C4.38976 5.66404 4.34809 5.43032 4.33619 5.19061C4.2698 4.72513 4.30748 4.2506 4.44651 3.80165C4.58555 3.35271 4.82242 2.9407 5.13982 2.59568C5.28942 2.44793 5.44636 2.3079 5.61007 2.17617L6.03867 1.81659L5.63984 1.61884L5.59817 1.53493H5.7827H5.82438C6.67489 1.61923 7.53243 1.5991 8.37812 1.47499C8.75311 1.42087 9.13522 1.49697 9.4615 1.69075C9.79826 1.87077 10.0647 2.1601 10.2175 2.51177C10.2578 2.58589 10.3101 2.65274 10.3723 2.70955C10.4419 2.77223 10.5227 2.82103 10.6104 2.85337H10.6461H10.6878C10.8686 2.86439 11.0426 2.92645 11.19 3.03244C11.3374 3.13843 11.4522 3.28406 11.5212 3.45267C11.6939 3.81393 11.7619 4.21687 11.7176 4.61529C11.7176 4.84902 11.67 5.08273 11.6343 5.33443V5.46029C11.6045 5.67005 11.5747 5.89177 11.5509 6.1195V6.16745C11.5509 6.16745 11.5509 6.16746 11.5509 6.20941C11.5466 6.2352 11.5466 6.26151 11.5509 6.2873V6.59295L11.8545 6.64688L12.0569 6.69483C12.0493 6.70448 12.0457 6.71672 12.0468 6.729C12.0479 6.74127 12.0537 6.75264 12.0629 6.76075H12.045Z" fill="#83AFDD" stroke="#3F78AE" stroke-width="0.877698"/>
<path d="M14.1998 11.2438C14.164 11.2814 14.1178 11.3071 14.0672 11.3177C14.0165 11.3282 13.964 11.3231 13.9163 11.303C13.8686 11.2829 13.8281 11.2488 13.8001 11.205C13.7721 11.1613 13.7578 11.1101 13.7593 11.058V1.27761C13.757 1.15052 13.7807 1.02431 13.8288 0.9068C13.8769 0.789286 13.9485 0.682953 14.0391 0.594407C14.1266 0.50263 14.2321 0.430199 14.349 0.381707C14.4658 0.333215 14.5914 0.309742 14.7177 0.312758H24.4802C24.6066 0.309742 24.7321 0.333215 24.849 0.381707C24.9658 0.430199 25.0713 0.50263 25.1588 0.594407C25.2494 0.682953 25.321 0.789286 25.3691 0.9068C25.4172 1.02431 25.4409 1.15052 25.4386 1.27761V8.64888C25.4386 8.90533 25.3379 9.15137 25.1583 9.33327C24.9787 9.51517 24.735 9.61817 24.4802 9.61975H16.1464C16.0445 9.61828 15.9434 9.6377 15.8493 9.67685C15.7551 9.716 15.6698 9.77405 15.5987 9.84747L14.1998 11.2438Z" fill="#C35A9E" stroke="#B42E7E" stroke-width="0.625899"/>
<path d="M23.8732 2.12305H15.5751V3.16581H23.8732V2.12305Z" fill="white"/>
<path d="M21.7957 4.20801H15.5751V5.25077H21.7957V4.20801Z" fill="white"/>
<path d="M19.7241 6.2998H15.5751V7.34257H19.7241V6.2998Z" fill="white"/>
</svg>
