<svg width="18" height="20" viewBox="0 0 18 20" fill="none" xmlns="http://www.w3.org/2000/svg">
<mask id="mask0_41003_945" style="mask-type:luminance" maskUnits="userSpaceOnUse" x="0" y="0" width="18" height="20">
<path d="M17.2733 0H0V20H17.2733V0Z" fill="white"/>
</mask>
<g mask="url(#mask0_41003_945)">
<path d="M13.9508 3.26762V18.454C13.9575 18.7309 13.8552 18.9994 13.6658 19.2016C13.4764 19.4037 13.2151 19.5234 12.9383 19.5347H1.34205C1.20393 19.5315 1.06783 19.5009 0.941629 19.4447C0.815427 19.3885 0.701644 19.3078 0.606883 19.2072C0.512123 19.1067 0.43826 18.9883 0.389602 18.859C0.340943 18.7297 0.318459 18.592 0.32343 18.454V1.4167C0.318459 1.27863 0.340943 1.14093 0.389602 1.01163C0.43826 0.882322 0.512123 0.763981 0.606883 0.663443C0.701644 0.562904 0.815427 0.482173 0.941629 0.425955C1.06783 0.369737 1.20393 0.339138 1.34205 0.335938H11.1868L13.9508 3.26762Z" fill="#83AFDD"/>
<path d="M10.8695 0H1.3353C0.971198 0.0129735 0.626857 0.168885 0.3769 0.433956C0.126942 0.699028 -0.00851606 1.05191 -0.000116012 1.41615V18.4534C-0.00855297 18.8183 0.126705 19.1718 0.376501 19.4379C0.626298 19.704 0.970646 19.8612 1.3353 19.8758H12.9316C13.2517 19.8728 13.5594 19.7511 13.7949 19.5342C13.9457 19.3977 14.0658 19.2309 14.1471 19.0445C14.2285 18.8582 14.2694 18.6567 14.267 18.4534V3.6087L10.8695 0ZM13.6334 4.13665V18.4534C13.6385 18.6451 13.5675 18.8311 13.436 18.9707C13.3046 19.1103 13.1232 19.1923 12.9316 19.1988H1.3353C1.14474 19.1907 0.964979 19.108 0.834834 18.9686C0.704689 18.8291 0.634592 18.6441 0.639654 18.4534V1.41615C0.636185 1.22592 0.706815 1.04179 0.836635 0.902695C0.966455 0.763603 1.14529 0.680442 1.3353 0.670799H9.96885V4.1677L13.6334 4.13665ZM11.503 0.670799H9.96885V4.1677H13.6334V2.92546L11.503 0.670799ZM10.8819 0L9.96885 4.1677L14.267 3.63974L10.8819 0Z" fill="#3F78AE"/>
<path d="M11.1366 10.1924H2.97512C2.81039 10.1924 2.65242 10.127 2.53593 10.0105C2.41945 9.89402 2.354 9.73604 2.354 9.57131C2.354 9.40658 2.41945 9.24859 2.53593 9.13211C2.65242 9.01562 2.81039 8.9502 2.97512 8.9502H11.1553C11.3134 8.9597 11.462 9.0293 11.5705 9.14477C11.6791 9.26024 11.7394 9.41284 11.7391 9.57131C11.7392 9.73287 11.6763 9.88808 11.5638 10.004C11.4513 10.12 11.2981 10.1876 11.1366 10.1924Z" fill="white"/>
<path d="M11.1366 13.3965H2.97512C2.81039 13.3965 2.65242 13.3311 2.53593 13.2146C2.41945 13.0981 2.354 12.9401 2.354 12.7754C2.354 12.6107 2.41945 12.4527 2.53593 12.3362C2.65242 12.2197 2.81039 12.1543 2.97512 12.1543H11.1553C11.32 12.1543 11.478 12.2197 11.5944 12.3362C11.7109 12.4527 11.7764 12.6107 11.7764 12.7754C11.7764 12.9401 11.7109 13.0981 11.5944 13.2146C11.478 13.3311 11.32 13.3965 11.1553 13.3965H11.1366Z" fill="white"/>
<path d="M11.1366 16.5899H2.97512C2.81039 16.5899 2.65242 16.5244 2.53593 16.408C2.41945 16.2915 2.354 16.1335 2.354 15.9688C2.354 15.804 2.41945 15.6461 2.53593 15.5296C2.65242 15.4131 2.81039 15.3477 2.97512 15.3477H11.1553C11.32 15.3477 11.478 15.4131 11.5944 15.5296C11.7109 15.6461 11.7764 15.804 11.7764 15.9688C11.7764 16.1335 11.7109 16.2915 11.5944 16.408C11.478 16.5244 11.32 16.5899 11.1553 16.5899H11.1366Z" fill="white"/>
<path d="M12.2735 19.5463C14.7845 19.5463 16.8201 17.5107 16.8201 14.9997C16.8201 12.4887 14.7845 10.4531 12.2735 10.4531C9.76251 10.4531 7.72693 12.4887 7.72693 14.9997C7.72693 17.5107 9.76251 19.5463 12.2735 19.5463Z" fill="#C35A9E" stroke="#3F78AE" stroke-width="1.97872"/>
<path fill-rule="evenodd" clip-rule="evenodd" d="M12.8076 14.726L14.5467 13.1918C14.5614 13.1785 14.5732 13.1621 14.5812 13.144C14.5892 13.1258 14.5934 13.1061 14.5934 13.0862C14.5934 13.0664 14.5892 13.0467 14.5812 13.0285C14.5732 13.0104 14.5614 12.9941 14.5467 12.9807C14.518 12.954 14.4803 12.9392 14.4411 12.9392C14.402 12.9392 14.3643 12.954 14.3356 12.9807L12.6026 14.5086C12.5044 14.4452 12.3903 14.4107 12.2734 14.4092C12.1506 14.4092 12.0305 14.4457 11.9284 14.5139C11.8262 14.5822 11.7466 14.6792 11.6996 14.7927C11.6526 14.9062 11.6403 15.031 11.6643 15.1515C11.6882 15.272 11.7474 15.3827 11.8342 15.4696C11.9211 15.5564 12.0318 15.6156 12.1523 15.6395C12.2727 15.6635 12.3976 15.6512 12.5111 15.6042C12.6246 15.5572 12.7216 15.4776 12.7899 15.3754C12.8581 15.2733 12.8946 15.1532 12.8946 15.0303C12.8923 14.9231 12.8624 14.8182 12.8076 14.726ZM12.0933 15.0117C12.0933 14.9761 12.1039 14.9413 12.1237 14.9117C12.1435 14.882 12.1716 14.8589 12.2045 14.8453C12.2374 14.8317 12.2736 14.8281 12.3086 14.8351C12.3435 14.842 12.3756 14.8592 12.4008 14.8844C12.426 14.9095 12.4431 14.9416 12.4501 14.9766C12.457 15.0115 12.4535 15.0477 12.4399 15.0807C12.4262 15.1136 12.4031 15.1417 12.3735 15.1615C12.3439 15.1813 12.3091 15.1918 12.2734 15.1918C12.2487 15.1919 12.2242 15.1869 12.2015 15.177C12.1788 15.1672 12.1584 15.1528 12.1415 15.1348C12.1246 15.1167 12.1116 15.0954 12.1033 15.072C12.095 15.0487 12.0916 15.024 12.0933 14.9993V15.0117ZM8.18648 15.0117C8.18648 14.2019 8.42669 13.4103 8.87673 12.737C9.32677 12.0638 9.96641 11.5392 10.7147 11.2295C11.463 10.9199 12.2863 10.8392 13.0805 10.9977C13.8746 11.1561 14.604 11.5466 15.1761 12.1196C15.7483 12.6927 16.1377 13.4226 16.2949 14.217C16.4522 15.0114 16.3702 15.8346 16.0595 16.5824C15.7487 17.3302 15.2231 17.9691 14.5492 18.4181C13.8752 18.8671 13.0832 19.1061 12.2734 19.1049C11.7354 19.1041 11.2028 18.9972 10.7061 18.7903C10.2094 18.5835 9.75834 18.2808 9.37875 17.8994C8.99916 17.5181 8.69848 17.0657 8.4939 16.5681C8.28931 16.0704 8.18485 15.5373 8.18648 14.9993V15.0117ZM7.27344 15.0117C7.27344 16.0006 7.56668 16.9673 8.11608 17.7896C8.66549 18.6118 9.44639 19.2527 10.36 19.6311C11.2736 20.0096 12.279 20.1086 13.2489 19.9156C14.2188 19.7227 15.1097 19.2465 15.809 18.5473C16.5082 17.848 16.9844 16.9571 17.1774 15.9872C17.3703 15.0173 17.2713 14.0119 16.8928 13.0983C16.5144 12.1847 15.8735 11.4038 15.0513 10.8544C14.229 10.305 13.2623 10.0117 12.2734 10.0117C10.9495 10.0117 9.67961 10.5368 8.74228 11.4718C7.80496 12.4068 7.27673 13.6754 7.27344 14.9993V15.0117Z" fill="white"/>
<path d="M9.55906 15.8755C9.51668 15.8897 9.47183 15.8949 9.42734 15.8908C9.38285 15.8868 9.33968 15.8735 9.30057 15.8519C9.26146 15.8303 9.22724 15.8009 9.20011 15.7654C9.17297 15.7299 9.15349 15.6891 9.1429 15.6457C9.04625 15.1751 9.05728 14.6888 9.17512 14.2231C9.29297 13.7573 9.5146 13.3243 9.82344 12.9563C10.1323 12.5883 10.5203 12.2949 10.9586 12.0981C11.3968 11.9012 11.8739 11.8061 12.3541 11.8196C12.9177 11.8318 13.4674 11.9971 13.9442 12.2979C13.9813 12.3231 14.0128 12.3558 14.0366 12.3938C14.0604 12.4318 14.076 12.4744 14.0824 12.5188C14.0888 12.5633 14.0859 12.6085 14.0739 12.6518C14.0619 12.695 14.0409 12.7352 14.0125 12.7699C13.9531 12.8409 13.8697 12.8877 13.7782 12.9014C13.6866 12.9151 13.5932 12.8949 13.5156 12.8445C13.1048 12.596 12.6308 12.4718 12.1509 12.487C11.6711 12.5022 11.2059 12.6561 10.8117 12.9301C10.4174 13.2041 10.111 13.5864 9.92952 14.0309C9.748 14.4754 9.69914 14.9629 9.78887 15.4345C9.80887 15.5234 9.79676 15.6164 9.75469 15.6971C9.71262 15.7778 9.64331 15.841 9.55906 15.8755Z" stroke="white" stroke-width="1.97872"/>
<path d="M4.32929 4.71967C4.5865 4.7346 4.84227 4.6719 5.06342 4.53973C5.28457 4.40756 5.46091 4.212 5.56958 3.97839C5.67825 3.74479 5.71424 3.48393 5.67286 3.22963C5.63149 2.97534 5.51466 2.73934 5.33755 2.55224C5.16043 2.36513 4.93119 2.23555 4.67954 2.1803C4.4279 2.12505 4.16546 2.14668 3.92625 2.24238C3.68705 2.33808 3.48212 2.50344 3.33802 2.71701C3.19392 2.93059 3.11731 3.18251 3.11812 3.44015C3.11316 3.60381 3.14061 3.76684 3.19887 3.91986C3.25714 4.07288 3.34509 4.21286 3.45765 4.33177C3.57021 4.45068 3.70516 4.54618 3.85475 4.61274C4.00435 4.67931 4.16561 4.71565 4.32929 4.71967Z" fill="white"/>
<path d="M5.63356 4.7207C5.48101 4.90174 5.29248 5.04908 5.07996 5.15339C4.86743 5.2577 4.63555 5.31669 4.39902 5.32662C4.16248 5.33655 3.92647 5.2972 3.70595 5.21107C3.48543 5.12494 3.28522 4.9939 3.11804 4.82628C2.49692 5.55299 2.41616 6.81386 2.72051 7.03746C3.81583 7.45955 5.02893 7.45955 6.12425 7.03746C6.45344 6.80144 6.29816 5.41014 5.63356 4.7207Z" fill="white"/>
</g>
</svg>
