<svg width="182" height="32" viewBox="0 0 182 32" fill="none" xmlns="http://www.w3.org/2000/svg">
<g clip-path="url(#clip0_41108_26819)">
<g clip-path="url(#clip1_41108_26819)">
<path d="M17.07 10.6395C16.27 9.83948 15.31 9.19948 14.2433 8.77281C13.1767 8.29281 12.0033 8.07948 10.7767 8.07948C9.55001 8.07948 8.37667 8.29281 7.31001 8.77281C6.29667 9.19948 5.39001 9.78615 4.59001 10.5328V3.49281C4.59001 3.11948 4.43001 2.79948 4.21667 2.53281C3.68334 1.99948 2.83001 1.99948 2.29667 2.53281C2.03001 2.74615 1.92334 3.06615 1.92334 3.49281V24.2396C1.92334 24.6129 2.08334 24.9329 2.35001 25.1996C2.88334 25.7329 3.79001 25.7329 4.27001 25.1996C4.53667 24.9329 4.64334 24.6129 4.64334 24.2396V23.2796C5.44334 24.0262 6.35001 24.6129 7.36334 25.0929C8.43001 25.5729 9.60334 25.7862 10.83 25.7862C12.0567 25.7862 13.23 25.5729 14.2967 25.0929C15.3633 24.6129 16.3233 23.9729 17.1233 23.1729C17.9234 22.3729 18.5634 21.4129 19.0434 20.3462C19.5234 19.2796 19.7367 18.1062 19.7367 16.8795C19.7367 15.6528 19.5234 14.4795 19.0434 13.4128C18.51 12.3461 17.87 11.4395 17.07 10.6395ZM16.9633 16.8795C16.9633 17.7328 16.8033 18.5329 16.4833 19.2796C16.1633 20.0262 15.7367 20.6662 15.2033 21.2529C14.67 21.7862 13.9767 22.2662 13.23 22.5862C11.7367 23.2262 9.87001 23.2262 8.37667 22.5862C7.63001 22.2662 6.99001 21.7862 6.40334 21.2529C5.87001 20.7196 5.39001 20.0262 5.12334 19.2796C4.80334 18.5329 4.64334 17.7328 4.64334 16.8795C4.64334 16.0261 4.80334 15.2261 5.12334 14.4795C5.44334 13.7328 5.87001 13.0928 6.45667 12.5061C6.99001 11.9728 7.68334 11.4928 8.43001 11.1728C9.17667 10.8528 9.97667 10.6928 10.83 10.6928C11.6833 10.6928 12.5367 10.8528 13.2833 11.1728C14.03 11.4928 14.67 11.9195 15.2567 12.4528C15.79 12.9861 16.27 13.6795 16.5367 14.4261C16.8033 15.2795 16.9633 16.0795 16.9633 16.8795Z" fill="#636466"/>
<path d="M39.8918 3.49261C39.8918 3.11927 39.7318 2.79927 39.4652 2.53261C38.9318 1.99927 38.0252 2.05261 37.5452 2.53261C37.2785 2.79927 37.1718 3.11927 37.1718 3.49261V10.4793C36.5318 9.89261 35.8385 9.35927 35.0918 8.98594C33.8652 8.34594 32.5318 8.02594 31.0385 8.02594C29.8118 8.02594 28.6918 8.23927 27.5718 8.71927C26.5052 9.19927 25.5452 9.78594 24.7452 10.5859C23.9452 11.3859 23.3052 12.3459 22.8252 13.4126C22.3452 14.4793 22.1318 15.6526 22.1318 16.8793C22.1318 18.1059 22.3452 19.2792 22.8252 20.3459C23.3052 21.4125 23.9452 22.3725 24.7452 23.1725C25.5452 23.9725 26.5052 24.6125 27.5718 25.0925C28.6385 25.5725 29.8118 25.7859 31.0385 25.7859C32.4785 25.7859 33.8652 25.4659 35.0918 24.8259C35.8918 24.3992 36.5852 23.9192 37.1718 23.3325V24.2392C37.1718 24.6125 37.3318 24.9325 37.5452 25.1992C38.0785 25.7325 38.9318 25.7325 39.4652 25.1992C39.7318 24.9325 39.8918 24.6125 39.8918 24.2392V3.49261ZM28.5852 22.5325C27.8385 22.2125 27.1985 21.7859 26.6652 21.1992C26.1318 20.6659 25.6518 19.9725 25.3852 19.2259C25.0652 18.4792 24.9052 17.6793 24.9052 16.8259C24.9052 15.9726 25.0652 15.1726 25.3852 14.4259C25.7052 13.6793 26.1318 13.0393 26.6652 12.5059C27.1985 11.9726 27.8918 11.4926 28.6385 11.2259C29.3852 10.9059 30.1852 10.7459 31.0385 10.7459C31.8918 10.7459 32.6918 10.9059 33.4385 11.2259C34.1852 11.5459 34.8252 11.9726 35.4118 12.5059C35.9452 13.0393 36.4252 13.7326 36.6918 14.4259C37.0118 15.1726 37.1718 15.9726 37.1718 16.8259C37.1718 17.6793 37.0118 18.4792 36.6918 19.2259C36.3718 19.9725 35.9452 20.6125 35.4118 21.1992C34.8785 21.7325 34.2385 22.2125 33.4918 22.5325C31.9452 23.1725 30.0785 23.1725 28.5852 22.5325Z" fill="#636466"/>
<path d="M45.3291 3.17285C44.9025 3.17285 44.4758 3.33285 44.2091 3.65285C43.8891 3.97285 43.7291 4.34619 43.7291 4.77285C43.7291 5.19952 43.8891 5.57285 44.2091 5.89285C44.5291 6.21285 44.9025 6.37285 45.3291 6.37285C45.8091 6.37285 46.1825 6.21285 46.5025 5.89285C46.8225 5.57285 46.9825 5.19952 46.9825 4.77285C46.9825 4.29285 46.8225 3.91952 46.5025 3.59952C46.1825 3.33285 45.7558 3.17285 45.3291 3.17285Z" fill="#636466"/>
<path d="M44.3719 8.45371C44.1052 8.72038 43.9985 9.04038 43.9985 9.41371V24.8803C43.9985 25.2537 43.9452 25.627 43.7852 26.0003C43.6252 26.3203 43.4119 26.6403 43.1452 26.907C42.8785 27.1737 42.5585 27.387 42.2385 27.547C41.9185 27.707 41.5452 27.7603 41.1185 27.7603H40.8519C40.4785 27.7603 40.1585 27.9203 39.8919 28.1337C39.6252 28.4003 39.4652 28.7203 39.4652 29.0937C39.4652 29.467 39.6252 29.787 39.8919 30.0537C40.1585 30.3203 40.4785 30.427 40.8519 30.427C40.9052 30.427 40.9052 30.427 40.9585 30.427H41.1185C41.8652 30.427 42.5585 30.267 43.2519 30.0003C43.9452 29.7337 44.5319 29.307 45.0119 28.827C45.4919 28.347 45.9185 27.7603 46.2385 27.067C46.5585 26.3737 46.7185 25.6803 46.7185 24.9337V9.46704C46.7185 9.09371 46.5585 8.72038 46.3452 8.45371C45.8119 7.92038 44.9052 7.92038 44.3719 8.45371Z" fill="#636466"/>
<path d="M64.9568 10.6387C64.1568 9.83872 63.1968 9.19872 62.1302 8.71872C61.0635 8.23872 59.8902 8.02539 58.6635 8.02539C57.4368 8.02539 56.3168 8.23872 55.1968 8.71872C54.1302 9.19872 53.1702 9.83872 52.3702 10.6387C51.5702 11.4387 50.9302 12.3987 50.4502 13.4654C49.9702 14.5321 49.7568 15.7054 49.7568 16.9321C49.7568 18.1587 49.9702 19.2787 50.4502 20.3987C50.9302 21.4654 51.5702 22.4254 52.3702 23.2254C53.1702 24.0254 54.1302 24.6654 55.1968 25.1454C56.2635 25.6254 57.4368 25.8387 58.6635 25.8387C59.8902 25.8387 61.0635 25.6254 62.1302 25.1454C63.1968 24.6654 64.1568 24.0254 64.9568 23.2254C65.7568 22.4254 66.3968 21.4654 66.8768 20.3987C67.3568 19.3321 67.5702 18.1587 67.5702 16.9321C67.5702 15.7054 67.3568 14.5321 66.8768 13.4654C66.3968 12.3987 65.7568 11.4387 64.9568 10.6387ZM52.5302 16.9321C52.5302 16.0787 52.6902 15.2787 53.0102 14.5321C53.3302 13.7854 53.7568 13.1454 54.2902 12.5587C54.8235 12.0254 55.5168 11.5454 56.2635 11.2254C57.0102 10.9054 57.8102 10.7454 58.6635 10.7454C59.5168 10.7454 60.3168 10.9054 61.0635 11.2254C61.8102 11.5454 62.4502 11.9721 63.0368 12.5587C63.5702 13.0921 64.0502 13.7854 64.3168 14.5321C64.6368 15.2787 64.7968 16.0787 64.7968 16.9321C64.7968 17.7854 64.6368 18.5854 64.3168 19.2787C63.9968 20.0254 63.5702 20.6654 63.0368 21.2521C62.5035 21.7854 61.8635 22.2654 61.1168 22.5854C59.6235 23.2254 57.7568 23.2254 56.3168 22.5854C55.5702 22.2654 54.9302 21.7854 54.3435 21.2521C53.8102 20.7187 53.3302 20.0254 53.0635 19.2787C52.6902 18.5854 52.5302 17.7854 52.5302 16.9321Z" fill="#636466"/>
<path d="M85.8666 10.6395C85.0666 9.83948 84.1066 9.19948 83.04 8.77281C81.9733 8.29281 80.8 8.07948 79.5733 8.07948C78.3466 8.07948 77.1733 8.29281 76.1066 8.77281C75.0933 9.19948 74.1866 9.78615 73.3866 10.5328V3.49281C73.3866 3.11948 73.2266 2.79948 73.0133 2.53281C72.48 1.99948 71.6266 1.99948 71.0933 2.53281C70.8266 2.79948 70.6666 3.11948 70.6666 3.49281V24.2396C70.6666 24.6129 70.8266 24.9329 71.0933 25.1996C71.6266 25.7329 72.5333 25.7329 73.0133 25.1996C73.28 24.9329 73.3866 24.6129 73.3866 24.2396V23.2796C74.1866 24.0262 75.0933 24.6129 76.1066 25.0929C77.1733 25.5729 78.3466 25.7862 79.5733 25.7862C80.8 25.7862 81.9733 25.5729 83.04 25.0929C84.1066 24.6129 85.0666 23.9729 85.8666 23.1729C86.6666 22.3729 87.3066 21.4129 87.7866 20.3462C88.2666 19.2796 88.48 18.1062 88.48 16.8795C88.48 15.6528 88.2666 14.4795 87.7866 13.4128C87.3066 12.3461 86.6666 11.4395 85.8666 10.6395ZM85.7066 16.8795C85.7066 17.7328 85.5466 18.5329 85.2266 19.2796C84.9066 20.0262 84.48 20.6662 83.9466 21.2529C83.4133 21.7862 82.72 22.2662 81.9733 22.5862C80.48 23.2262 78.6133 23.2262 77.12 22.5862C76.3733 22.2662 75.7333 21.7862 75.1466 21.2529C74.6133 20.7196 74.1333 20.0262 73.8666 19.2796C73.5466 18.5329 73.3866 17.7328 73.3866 16.8795C73.3866 16.0261 73.5466 15.2261 73.8666 14.4795C74.1866 13.7328 74.6133 13.0928 75.2 12.5061C75.7333 11.9728 76.4266 11.4928 77.1733 11.1728C77.92 10.8528 78.72 10.6928 79.5733 10.6928C80.4266 10.6928 81.28 10.8528 82.0266 11.1728C82.7733 11.4928 83.4133 11.9195 84 12.4528C84.5333 12.9861 85.0133 13.6795 85.28 14.4261C85.5466 15.2795 85.7066 16.0795 85.7066 16.8795Z" fill="#636466"/>
<path d="M102.458 18.4797C102.138 17.9463 101.658 17.4131 101.072 17.0397C100.538 16.6664 99.845 16.3464 99.1516 16.0797C98.4583 15.8131 97.7116 15.5997 96.9116 15.3331C96.4316 15.1731 96.005 15.0664 95.5783 14.9064C95.205 14.7464 94.8316 14.5864 94.565 14.3731C94.2983 14.1597 94.085 13.9464 93.925 13.6797C93.765 13.4664 93.7116 13.1464 93.7116 12.7731C93.7116 12.3464 93.8183 12.0264 93.9783 11.7597C94.1383 11.4931 94.405 11.2797 94.6716 11.0664C94.9916 10.9064 95.3116 10.7464 95.685 10.6931C96.805 10.4264 97.925 10.5331 98.725 10.9597C99.2583 11.2264 99.7383 11.7064 100.218 12.2931L100.272 12.3997L100.378 12.4531C100.645 12.6131 100.912 12.6664 101.232 12.5597C101.498 12.5064 101.712 12.3997 101.925 12.1864C102.298 11.8131 102.405 11.2264 102.085 10.6931C101.818 10.2131 101.498 9.83972 101.125 9.46639C100.752 9.14639 100.325 8.82639 99.845 8.61306C99.365 8.39972 98.885 8.23972 98.3516 8.13306C97.1783 7.91972 95.8983 7.91972 94.725 8.23972C94.0316 8.45306 93.3916 8.71972 92.8583 9.09306C92.2716 9.46639 91.845 9.99972 91.4716 10.5864C91.0983 11.1731 90.9383 11.9197 90.9383 12.7197C90.9383 13.4664 91.0983 14.1064 91.4183 14.6931C91.7383 15.2264 92.165 15.7064 92.645 16.0797C93.125 16.4531 93.7116 16.7731 94.2983 17.0397C94.885 17.3064 95.525 17.5197 96.165 17.7331C96.7516 17.893 97.3383 18.1063 97.8716 18.2663C98.405 18.4263 98.8316 18.6396 99.205 18.9063C99.5783 19.1196 99.845 19.3863 100.005 19.653C100.165 19.9196 100.272 20.2396 100.272 20.613C100.272 20.9863 100.165 21.3063 100.005 21.6263C99.845 21.9463 99.5783 22.213 99.2583 22.4263C98.9383 22.6397 98.565 22.853 98.1383 22.9596C97.7116 23.0663 97.285 23.173 96.805 23.173C95.8983 23.173 95.0983 23.013 94.4583 22.693C93.8716 22.373 93.3916 21.9463 92.965 21.253L92.9116 21.1996C92.645 20.8796 92.325 20.6663 92.005 20.613C91.685 20.5596 91.365 20.613 91.0983 20.773C90.8316 20.933 90.6183 21.1996 90.5116 21.5196C90.405 21.8396 90.4583 22.213 90.6716 22.5863C90.9383 23.1196 91.3116 23.5997 91.7383 23.973C92.165 24.3463 92.645 24.6663 93.1783 24.933C93.7116 25.1997 94.2983 25.3597 94.885 25.5197C95.4716 25.6263 96.1116 25.6797 96.7516 25.6797C97.605 25.6797 98.3516 25.573 99.0983 25.3063C99.845 25.0397 100.485 24.6663 101.018 24.2397C101.605 23.7597 102.032 23.2263 102.352 22.5863C102.672 21.9463 102.832 21.253 102.832 20.5063C102.992 19.7596 102.778 19.0663 102.458 18.4797Z" fill="#636466"/>
<path d="M159.257 30.7196H108.75L112.217 13.2796C113.55 6.50627 119.47 1.59961 126.403 1.59961H179.417L176.537 16.1596C174.883 24.6396 167.63 30.7196 159.257 30.7196Z" fill="#0DB14B"/>
<path d="M122.51 24.053H118.243L122.563 7.41309C122.563 7.41309 128.75 7.41309 130.883 7.41309C133.016 7.41309 134.883 9.22642 134.243 12.4798C133.603 15.7864 131.416 17.9731 129.763 18.7731C128.11 19.5731 124.056 19.1464 124.056 19.1464L122.51 24.053ZM127.363 15.3064C128.536 15.3598 129.55 14.9331 130.03 14.1331C130.51 13.3864 130.99 11.4131 128.803 11.4131C126.616 11.4131 126.136 11.4131 126.136 11.4131C126.136 11.4131 124.963 15.0398 125.016 15.1464C125.07 15.1464 126.19 15.2531 127.363 15.3064Z" fill="white"/>
<path d="M137.816 24.1061C137.763 24.0527 133.069 24.0527 133.069 24.0527L137.816 7.35938C137.816 7.35938 143.416 7.35938 146.669 7.35938C149.923 7.35938 150.669 11.0927 150.296 13.4394C149.709 16.746 145.389 18.5594 145.389 18.5594L148.323 24.1594H142.883L140.803 18.6661H139.309L137.816 24.1061ZM142.829 15.0927C142.829 15.0927 144.536 15.2527 145.229 14.3994C145.923 13.546 146.136 11.5727 144.589 11.5727C143.043 11.5727 141.123 11.5727 141.123 11.5727L140.163 14.8794L142.829 15.0927Z" fill="white"/>
<path d="M165.922 21.493C161.922 25.2263 156.269 25.7597 153.336 22.613C150.402 19.4663 151.309 13.9197 155.309 10.133C159.309 6.34636 164.962 5.86636 167.896 9.01303C170.829 12.1597 169.922 17.7597 165.922 21.493ZM164.269 12.373C162.829 10.8264 160.002 11.0397 157.976 12.9597C155.949 14.8264 155.522 17.653 156.962 19.1997C158.402 20.7463 161.229 20.533 163.256 18.613C165.336 16.7464 165.762 13.973 164.269 12.373Z" fill="white"/>
</g>
</g>
<defs>
<clipPath id="clip0_41108_26819">
<rect width="181.333" height="32" fill="white"/>
</clipPath>
<clipPath id="clip1_41108_26819">
<rect width="181.333" height="32" fill="white"/>
</clipPath>
</defs>
</svg>
