<svg width="102" height="18" viewBox="0 0 102 18" fill="none" xmlns="http://www.w3.org/2000/svg">
<path d="M9.5198 5.98519C9.07355 5.53519 8.53805 5.17519 7.94304 4.9352C7.34805 4.6652 6.69355 4.54519 6.0093 4.54519C5.32505 4.54519 4.67055 4.6652 4.07555 4.9352C3.5103 5.17519 3.00455 5.50519 2.5583 5.9252V1.9652C2.5583 1.75519 2.46905 1.57519 2.35005 1.4252C2.05255 1.12519 1.57655 1.12519 1.27905 1.4252C1.1303 1.54519 1.0708 1.72519 1.0708 1.9652V13.6352C1.0708 13.8452 1.16005 14.0252 1.3088 14.1752C1.6063 14.4752 2.11205 14.4752 2.3798 14.1752C2.52855 14.0252 2.58805 13.8452 2.58805 13.6352V13.0952C3.0343 13.5152 3.54005 13.8452 4.1053 14.1152C4.7003 14.3852 5.35479 14.5052 6.03905 14.5052C6.7233 14.5052 7.3778 14.3852 7.9728 14.1152C8.56779 13.8452 9.10329 13.4852 9.54954 13.0352C9.99579 12.5852 10.3528 12.0452 10.6205 11.4452C10.8883 10.8452 11.0073 10.1852 11.0073 9.49519C11.0073 8.8052 10.8883 8.14519 10.6205 7.5452C10.323 6.94519 9.96605 6.43519 9.5198 5.98519ZM9.46029 9.49519C9.46029 9.9752 9.37104 10.4252 9.19254 10.8452C9.01404 11.2652 8.77605 11.6252 8.47854 11.9552C8.18105 12.2552 7.7943 12.5252 7.3778 12.7052C6.5448 13.0652 5.50355 13.0652 4.67055 12.7052C4.25405 12.5252 3.89705 12.2552 3.5698 11.9552C3.2723 11.6552 3.00455 11.2652 2.8558 10.8452C2.6773 10.4252 2.58805 9.9752 2.58805 9.49519C2.58805 9.01519 2.6773 8.56519 2.8558 8.14519C3.0343 7.7252 3.2723 7.3652 3.59955 7.03519C3.89705 6.7352 4.2838 6.4652 4.7003 6.2852C5.1168 6.1052 5.56305 6.0152 6.03905 6.0152C6.51504 6.0152 6.99105 6.1052 7.40755 6.2852C7.82405 6.4652 8.18105 6.70519 8.5083 7.0052C8.8058 7.30519 9.07355 7.69519 9.2223 8.11519C9.37105 8.59519 9.46029 9.04519 9.46029 9.49519Z" fill="#475467"/>
<path d="M22.2533 1.96484C22.2533 1.75484 22.1641 1.57484 22.0153 1.42484C21.7178 1.12483 21.212 1.15484 20.9443 1.42484C20.7956 1.57484 20.7361 1.75484 20.7361 1.96484V5.89484C20.3791 5.56484 19.9924 5.26484 19.5758 5.05483C18.8915 4.69483 18.1478 4.51483 17.3149 4.51483C16.6306 4.51483 16.0058 4.63484 15.3811 4.90484C14.786 5.17484 14.2505 5.50483 13.8043 5.95483C13.358 6.40483 13.001 6.94483 12.7333 7.54483C12.4656 8.14484 12.3466 8.80483 12.3466 9.49484C12.3466 10.1848 12.4656 10.8448 12.7333 11.4448C13.001 12.0448 13.358 12.5848 13.8043 13.0349C14.2505 13.4849 14.786 13.8449 15.3811 14.1149C15.9761 14.3849 16.6306 14.5048 17.3149 14.5048C18.1181 14.5048 18.8915 14.3248 19.5758 13.9648C20.0221 13.7248 20.4088 13.4548 20.7361 13.1249V13.6348C20.7361 13.8449 20.8253 14.0249 20.9443 14.1748C21.2419 14.4749 21.7178 14.4749 22.0153 14.1748C22.1641 14.0249 22.2533 13.8449 22.2533 13.6348V1.96484ZM15.9463 12.6748C15.5299 12.4948 15.1729 12.2548 14.8753 11.9248C14.5778 11.6248 14.3101 11.2348 14.1613 10.8148C13.9828 10.3948 13.8935 9.94484 13.8935 9.46483C13.8935 8.98483 13.9828 8.53483 14.1613 8.11483C14.3398 7.69484 14.5778 7.33484 14.8753 7.03483C15.1729 6.73483 15.5596 6.46484 15.9761 6.31483C16.3925 6.13483 16.8388 6.04483 17.3149 6.04483C17.7908 6.04483 18.2371 6.13483 18.6536 6.31483C19.07 6.49483 19.427 6.73483 19.7543 7.03483C20.0518 7.33484 20.3195 7.72483 20.4683 8.11483C20.6468 8.53483 20.7361 8.98483 20.7361 9.46483C20.7361 9.94484 20.6468 10.3948 20.4683 10.8148C20.2898 11.2348 20.0518 11.5948 19.7543 11.9248C19.4569 12.2248 19.0999 12.4948 18.6833 12.6748C17.8205 13.0349 16.7794 13.0349 15.9463 12.6748Z" fill="#475467"/>
<path d="M25.287 1.78516C25.049 1.78516 24.8111 1.87516 24.6623 2.05516C24.4838 2.23516 24.3945 2.44516 24.3945 2.68516C24.3945 2.92516 24.4838 3.13516 24.6623 3.31516C24.8408 3.49516 25.049 3.58516 25.287 3.58516C25.5548 3.58516 25.763 3.49516 25.9415 3.31516C26.12 3.13516 26.2092 2.92516 26.2092 2.68516C26.2092 2.41516 26.12 2.20516 25.9415 2.02516C25.763 1.87516 25.5251 1.78516 25.287 1.78516Z" fill="#475467"/>
<path d="M24.7507 4.75527C24.6019 4.90527 24.5425 5.08527 24.5425 5.29527V13.9953C24.5425 14.2053 24.5127 14.4152 24.4234 14.6253C24.3342 14.8053 24.2152 14.9853 24.0664 15.1352C23.9178 15.2853 23.7393 15.4052 23.5608 15.4952C23.3823 15.5852 23.1739 15.6153 22.936 15.6153H22.7872C22.579 15.6153 22.4005 15.7053 22.2517 15.8253C22.1029 15.9753 22.0137 16.1553 22.0137 16.3653C22.0137 16.5752 22.1029 16.7552 22.2517 16.9053C22.4005 17.0553 22.579 17.1152 22.7872 17.1152C22.8169 17.1152 22.8169 17.1152 22.8468 17.1152H22.936C23.3524 17.1152 23.7393 17.0252 24.126 16.8753C24.5127 16.7253 24.84 16.4852 25.1077 16.2152C25.3755 15.9452 25.6135 15.6153 25.792 15.2252C25.9705 14.8353 26.0598 14.4453 26.0598 14.0253V5.32528C26.0598 5.11527 25.9705 4.90527 25.8514 4.75527C25.554 4.45527 25.0482 4.45527 24.7507 4.75527Z" fill="#475467"/>
<path d="M36.2351 5.98464C35.7888 5.53464 35.2533 5.17464 34.6584 4.90464C34.0634 4.63464 33.4089 4.51465 32.7246 4.51465C32.0403 4.51465 31.4156 4.63464 30.7908 4.90464C30.1959 5.17464 29.6604 5.53464 29.2142 5.98464C28.7679 6.43464 28.4109 6.97464 28.1432 7.57465C27.8754 8.17464 27.7563 8.83465 27.7563 9.52464C27.7563 10.2146 27.8754 10.8446 28.1432 11.4746C28.4109 12.0746 28.7679 12.6146 29.2142 13.0646C29.6604 13.5146 30.1959 13.8746 30.7908 14.1446C31.3859 14.4146 32.0403 14.5346 32.7246 14.5346C33.4089 14.5346 34.0634 14.4146 34.6584 14.1446C35.2533 13.8746 35.7888 13.5146 36.2351 13.0646C36.6813 12.6146 37.0383 12.0746 37.3061 11.4746C37.5738 10.8746 37.6929 10.2146 37.6929 9.52464C37.6929 8.83465 37.5738 8.17464 37.3061 7.57465C37.0383 6.97464 36.6813 6.43464 36.2351 5.98464ZM29.3034 9.52464C29.3034 9.04464 29.3927 8.59464 29.5712 8.17464C29.7497 7.75465 29.9876 7.39465 30.2852 7.06464C30.5826 6.76465 30.9693 6.49465 31.3859 6.31465C31.8024 6.13465 32.2487 6.04465 32.7246 6.04465C33.2006 6.04465 33.6468 6.13465 34.0634 6.31465C34.4799 6.49465 34.8369 6.73464 35.1641 7.06464C35.4617 7.36464 35.7294 7.75465 35.8781 8.17464C36.0566 8.59464 36.1458 9.04464 36.1458 9.52464C36.1458 10.0046 36.0566 10.4546 35.8781 10.8446C35.6996 11.2646 35.4617 11.6246 35.1641 11.9546C34.8666 12.2546 34.5096 12.5246 34.0931 12.7046C33.2601 13.0646 32.2188 13.0646 31.4156 12.7046C30.9992 12.5246 30.6422 12.2546 30.3149 11.9546C30.0174 11.6546 29.7497 11.2646 29.6009 10.8446C29.3927 10.4546 29.3034 10.0046 29.3034 9.52464Z" fill="#475467"/>
<path d="M47.8992 5.98519C47.4529 5.53519 46.9174 5.17519 46.3224 4.9352C45.7273 4.6652 45.0729 4.54519 44.3886 4.54519C43.7044 4.54519 43.0498 4.6652 42.4549 4.9352C41.8896 5.17519 41.3839 5.50519 40.9377 5.9252V1.9652C40.9377 1.75519 40.8484 1.57519 40.7293 1.4252C40.4319 1.12519 39.9559 1.12519 39.6583 1.4252C39.5097 1.57519 39.4204 1.75519 39.4204 1.9652V13.6352C39.4204 13.8452 39.5097 14.0252 39.6583 14.1752C39.9559 14.4752 40.4616 14.4752 40.7293 14.1752C40.8781 14.0252 40.9377 13.8452 40.9377 13.6352V13.0952C41.3839 13.5152 41.8896 13.8452 42.4549 14.1152C43.0498 14.3852 43.7044 14.5052 44.3886 14.5052C45.0729 14.5052 45.7273 14.3852 46.3224 14.1152C46.9174 13.8452 47.4529 13.4852 47.8992 13.0352C48.3454 12.5852 48.7024 12.0452 48.9702 11.4452C49.2379 10.8452 49.3569 10.1852 49.3569 9.49519C49.3569 8.8052 49.2379 8.14519 48.9702 7.5452C48.7024 6.94519 48.3454 6.43519 47.8992 5.98519ZM47.8099 9.49519C47.8099 9.9752 47.7207 10.4252 47.5422 10.8452C47.3637 11.2652 47.1256 11.6252 46.8282 11.9552C46.5306 12.2552 46.1439 12.5252 45.7273 12.7052C44.8944 13.0652 43.8531 13.0652 43.0201 12.7052C42.6036 12.5252 42.2466 12.2552 41.9194 11.9552C41.6218 11.6552 41.3541 11.2652 41.2054 10.8452C41.0269 10.4252 40.9377 9.9752 40.9377 9.49519C40.9377 9.01519 41.0269 8.56519 41.2054 8.14519C41.3839 7.7252 41.6218 7.3652 41.9491 7.03519C42.2466 6.7352 42.6334 6.4652 43.0498 6.2852C43.4664 6.1052 43.9126 6.0152 44.3886 6.0152C44.8647 6.0152 45.3406 6.1052 45.7572 6.2852C46.1736 6.4652 46.5306 6.70519 46.8579 7.0052C47.1553 7.30519 47.4231 7.69519 47.5719 8.11519C47.7207 8.59519 47.8099 9.04519 47.8099 9.49519Z" fill="#475467"/>
<path d="M57.1509 10.3948C56.9724 10.0948 56.7046 9.79484 56.3774 9.58484C56.0799 9.37484 55.6932 9.19484 55.3064 9.04484C54.9196 8.89484 54.5032 8.77484 54.0569 8.62484C53.7892 8.53484 53.5512 8.47484 53.3131 8.38484C53.1049 8.29484 52.8967 8.20484 52.7479 8.08484C52.5991 7.96484 52.4802 7.84484 52.3909 7.69484C52.3017 7.57484 52.2719 7.39484 52.2719 7.18484C52.2719 6.94484 52.3314 6.76484 52.4206 6.61484C52.5099 6.46484 52.6586 6.34484 52.8074 6.22484C52.9859 6.13484 53.1644 6.04484 53.3727 6.01484C53.9974 5.86484 54.6221 5.92484 55.0684 6.16484C55.3659 6.31484 55.6336 6.58484 55.9014 6.91484L55.9312 6.97484L55.9906 7.00484C56.1394 7.09484 56.2882 7.12484 56.4667 7.06484C56.6154 7.03484 56.7344 6.97484 56.8534 6.85484C57.0616 6.64484 57.1212 6.31484 56.9427 6.01484C56.7939 5.74484 56.6154 5.53484 56.4071 5.32485C56.1989 5.14485 55.9609 4.96484 55.6932 4.84484C55.4254 4.72484 55.1576 4.63484 54.8602 4.57484C54.2056 4.45484 53.4916 4.45484 52.8371 4.63484C52.4504 4.75484 52.0934 4.90484 51.7959 5.11484C51.4687 5.32484 51.2307 5.62484 51.0224 5.95485C50.8141 6.28484 50.7249 6.70484 50.7249 7.15484C50.7249 7.57485 50.8141 7.93483 50.9926 8.26484C51.1711 8.56483 51.4091 8.83484 51.6769 9.04484C51.9446 9.25484 52.2719 9.43484 52.5991 9.58484C52.9264 9.73484 53.2834 9.85484 53.6404 9.97484C53.9677 10.0648 54.2949 10.1848 54.5924 10.2748C54.8899 10.3648 55.1279 10.4848 55.3362 10.6348C55.5444 10.7548 55.6932 10.9048 55.7824 11.0548C55.8717 11.2048 55.9312 11.3848 55.9312 11.5948C55.9312 11.8048 55.8717 11.9848 55.7824 12.1648C55.6932 12.3448 55.5444 12.4948 55.3659 12.6148C55.1874 12.7348 54.9792 12.8548 54.7411 12.9149C54.5032 12.9748 54.2651 13.0348 53.9974 13.0348C53.4916 13.0348 53.0454 12.9448 52.6884 12.7648C52.3612 12.5848 52.0934 12.3448 51.8554 11.9548L51.8257 11.9248C51.6769 11.7448 51.4984 11.6248 51.3199 11.5948C51.1414 11.5648 50.9629 11.5948 50.8141 11.6848C50.6654 11.7748 50.5464 11.9248 50.4869 12.1048C50.4274 12.2848 50.4571 12.4948 50.5762 12.7048C50.7249 13.0049 50.9332 13.2749 51.1711 13.4848C51.4092 13.6948 51.6769 13.8748 51.9744 14.0248C52.2719 14.1749 52.5991 14.2649 52.9264 14.3549C53.2537 14.4148 53.6107 14.4449 53.9677 14.4449C54.4436 14.4449 54.8602 14.3848 55.2766 14.2348C55.6931 14.0849 56.0501 13.8748 56.3476 13.6349C56.6749 13.3649 56.9129 13.0648 57.0914 12.7048C57.2699 12.3448 57.3592 11.9548 57.3592 11.5348C57.4484 11.1148 57.3294 10.7248 57.1509 10.3948Z" fill="#475467"/>
<path d="M88.8305 17.2805H60.6572L62.591 7.47039C63.3347 3.66039 66.637 0.900391 70.5046 0.900391H100.076L98.4695 9.09039C97.5473 13.8605 93.5012 17.2805 88.8305 17.2805Z" fill="#0DB14B"/>
<path d="M68.3311 13.5299H65.9512L68.3609 4.16992C68.3609 4.16992 71.8118 4.16992 73.0019 4.16992C74.1919 4.16992 75.2332 5.18992 74.8762 7.01991C74.5192 8.87992 73.2994 10.1099 72.3772 10.5599C71.4548 11.0099 69.1939 10.7699 69.1939 10.7699L68.3311 13.5299ZM71.0384 8.60992C71.6929 8.63991 72.2581 8.39992 72.5258 7.94992C72.7936 7.52992 73.0613 6.41992 71.8417 6.41992C70.6219 6.41992 70.3541 6.41992 70.3541 6.41992C70.3541 6.41992 69.6997 8.45991 69.7294 8.51992C69.7591 8.51992 70.3838 8.57992 71.0384 8.60992Z" fill="white"/>
<path d="M76.8714 13.5596C76.8417 13.5296 74.2236 13.5296 74.2236 13.5296L76.8714 4.13965C76.8714 4.13965 79.9952 4.13965 81.8099 4.13965C83.6247 4.13965 84.0411 6.23964 83.8329 7.55965C83.5056 9.41965 81.0959 10.4396 81.0959 10.4396L82.7322 13.5897H79.6977L78.5375 10.4997H77.7044L76.8714 13.5596ZM79.6679 8.48964C79.6679 8.48964 80.6199 8.57964 81.0066 8.09965C81.3935 7.61965 81.5124 6.50964 80.6496 6.50964C79.787 6.50964 78.716 6.50964 78.716 6.50964L78.1805 8.36965L79.6679 8.48964Z" fill="white"/>
<path d="M92.5514 12.0903C90.3201 14.1903 87.1667 14.4902 85.5305 12.7203C83.8941 10.9502 84.3999 7.83026 86.6312 5.70025C88.8624 3.57026 92.0159 3.30026 93.6522 5.07025C95.2884 6.84026 94.7826 9.99026 92.5514 12.0903ZM91.6292 6.96025C90.8259 6.09026 89.2491 6.21026 88.1187 7.29026C86.9882 8.34026 86.7501 9.93025 87.5534 10.8003C88.3566 11.6703 89.9334 11.5503 91.0639 10.4703C92.2242 9.42025 92.4621 7.86025 91.6292 6.96025Z" fill="white"/>
</svg>
