<svg width="20" height="20" viewBox="0 0 20 20" fill="none" xmlns="http://www.w3.org/2000/svg">
<g clip-path="url(#clip0_31749_1855)">
<path d="M11.7084 5.0013C12.5223 5.16011 13.2704 5.55818 13.8568 6.14458C14.4432 6.73098 14.8412 7.47902 15 8.29297M11.7084 1.66797C13.3994 1.85583 14.9764 2.61311 16.1802 3.81548C17.3841 5.01784 18.1434 6.59381 18.3334 8.28464M8.52253 11.5539C7.52121 10.5525 6.73056 9.42034 6.15056 8.21233C6.10067 8.10842 6.07572 8.05647 6.05656 7.99072C5.98846 7.75709 6.03737 7.47021 6.17905 7.27235C6.21892 7.21668 6.26655 7.16905 6.36181 7.07379C6.65315 6.78245 6.79882 6.63678 6.89405 6.4903C7.25322 5.93789 7.25322 5.22574 6.89405 4.67333C6.79881 4.52685 6.65315 4.38118 6.36181 4.08984L6.19942 3.92745C5.75655 3.48458 5.53511 3.26315 5.2973 3.14286C4.82433 2.90363 4.26577 2.90363 3.79281 3.14286C3.55499 3.26315 3.33355 3.48458 2.89069 3.92745L2.75932 4.05881C2.31797 4.50016 2.09729 4.72084 1.92875 5.02087C1.74174 5.35379 1.60727 5.87086 1.60841 6.25272C1.60943 6.59684 1.67618 6.83202 1.80969 7.3024C2.52716 9.83023 3.88089 12.2155 5.87088 14.2055C7.86086 16.1955 10.2462 17.5492 12.774 18.2667C13.2444 18.4002 13.4795 18.467 13.8237 18.468C14.2055 18.4691 14.7226 18.3347 15.0555 18.1476C15.3555 17.9791 15.5762 17.7584 16.0176 17.3171L16.1489 17.1857C16.5918 16.7428 16.8132 16.5214 16.9335 16.2836C17.1728 15.8106 17.1728 15.2521 16.9335 14.7791C16.8132 14.5413 16.5918 14.3198 16.1489 13.877L15.9865 13.7146C15.6952 13.4232 15.5495 13.2776 15.4031 13.1823C14.8506 12.8232 14.1385 12.8232 13.5861 13.1823C13.4396 13.2776 13.2939 13.4232 13.0026 13.7146C12.9073 13.8098 12.8597 13.8575 12.804 13.8973C12.6062 14.039 12.3193 14.0879 12.0857 14.0198C12.0199 14.0007 11.968 13.9757 11.8641 13.9258C10.656 13.3458 9.52384 12.5552 8.52253 11.5539Z" stroke="#1D5FA2" stroke-width="1.6" stroke-linecap="round" stroke-linejoin="round"/>
</g>
<defs>
<clipPath id="clip0_31749_1855">
<rect width="20" height="20" fill="white"/>
</clipPath>
</defs>
</svg>
