<svg width="21" height="17" viewBox="0 0 21 17" fill="none" xmlns="http://www.w3.org/2000/svg">
<path d="M8.36178 12.3074C8.55227 11.7129 8.738 11.1232 8.92849 10.5383C9.44281 10.7972 9.95712 11.0609 10.4905 11.291C10.8133 11.4403 11.1499 11.5575 11.4953 11.641C11.768 11.6997 12.0159 11.8421 12.2049 12.0485C12.3786 12.2689 12.4904 12.5321 12.5287 12.8108C12.6404 13.495 12.6404 14.193 12.5287 14.8772C12.5327 14.8896 12.5327 14.9031 12.5287 14.9155H12.5001C11.5241 15.4335 10.478 15.805 9.39519 16.0182C8.16755 16.2707 6.91243 16.361 5.66161 16.2867C3.92857 16.1921 2.23249 15.7452 0.675577 14.9731C0.622272 14.9533 0.574786 14.9203 0.537483 14.8772C0.514039 14.838 0.500917 14.7935 0.499377 14.7477V14.5991C0.404983 13.9298 0.421077 13.2495 0.547002 12.5855C0.603313 12.3528 0.719993 12.1394 0.885115 11.967C1.05696 11.7956 1.27307 11.676 1.50896 11.6218C2.42272 11.365 3.29515 10.9775 4.0996 10.4712C4.18056 10.7205 4.26152 10.9506 4.33771 11.2143C4.68059 12.2882 5.01872 13.3574 5.3616 14.4649L5.57589 15.16L5.89496 14.508L5.91877 14.4649V14.4217C5.93869 14.3824 5.95311 14.3404 5.96163 14.2971C5.99496 14.1964 6.03307 14.0957 6.07116 13.9854C6.1807 13.6786 6.29974 13.3526 6.39022 13.0266C6.4112 12.9416 6.4112 12.8527 6.39022 12.7677C6.37863 12.6886 6.34932 12.6132 6.30451 12.5471C6.12142 12.2921 5.98884 12.004 5.914 11.6986C5.89865 11.6243 5.907 11.5472 5.93782 11.478C5.97188 11.4262 6.02217 11.3874 6.08068 11.3677C6.33633 11.267 6.62033 11.267 6.87598 11.3677C6.91191 11.3786 6.9453 11.3967 6.97419 11.4208C7.00308 11.4449 7.02689 11.4746 7.0442 11.5081C7.06151 11.5416 7.07197 11.5783 7.07498 11.6159C7.07799 11.6536 7.07347 11.6914 7.0617 11.7273C6.98576 12.0289 6.85144 12.3124 6.66644 12.5615C6.62863 12.622 6.60125 12.6884 6.58548 12.7581C6.55787 12.8422 6.55787 12.9329 6.58548 13.017C6.74739 13.4964 6.91884 13.9759 7.12837 14.4553L7.43315 15.16L7.67126 14.4313C7.91413 13.693 8.14749 12.969 8.36655 12.2547L8.36178 12.3074ZM9.72377 5.47071C9.72791 5.52496 9.72791 5.57946 9.72377 5.63371C9.69651 6.13273 9.57191 6.62146 9.35708 7.07201L9.32374 7.13434H9.22851H8.97135L8.91897 7.39324C8.83437 8.14649 8.45785 8.83567 7.87128 9.31097C7.46794 9.63564 6.95764 9.79489 6.44262 9.75684C5.92588 9.74327 5.42631 9.56724 5.01395 9.25344C4.46882 8.77828 4.11628 8.11791 4.02342 7.39804L3.97103 7.10557L3.68054 7.1631V7.13914C3.66223 7.11607 3.64775 7.09016 3.63767 7.06243C3.40537 6.61847 3.27978 6.12584 3.27098 5.62413C3.2639 5.57003 3.2639 5.51522 3.27098 5.46112C3.3205 5.44468 3.37157 5.43343 3.42338 5.42756L3.71863 5.394L3.67578 5.09675C3.67578 4.99127 3.6472 4.89059 3.62815 4.7947C3.59958 4.59334 3.56624 4.40637 3.55672 4.21459C3.50361 3.84221 3.53375 3.46259 3.64498 3.10343C3.75621 2.74428 3.9457 2.41467 4.19962 2.13866C4.3193 2.02045 4.44486 1.90843 4.57582 1.80305L4.9187 1.51538L4.59964 1.35718L4.56631 1.29005H4.71393H4.74727C5.42768 1.35749 6.11371 1.34139 6.79026 1.2421C7.09026 1.1988 7.39594 1.25969 7.65697 1.41471C7.92638 1.55872 8.13952 1.79019 8.26178 2.07153C8.29404 2.13082 8.33588 2.1843 8.38559 2.22975C8.44128 2.27989 8.50593 2.31893 8.57609 2.34481H8.60466H8.63799C8.78262 2.35362 8.92187 2.40327 9.03978 2.48806C9.15769 2.57285 9.24951 2.68936 9.30471 2.82424C9.44286 3.11325 9.49731 3.4356 9.46185 3.75434C9.46185 3.94132 9.42376 4.12829 9.39519 4.32965V4.43035C9.37138 4.59815 9.34756 4.77553 9.32851 4.95771V4.99607C9.32851 4.99607 9.32851 4.99608 9.32851 5.02964C9.32505 5.05027 9.32505 5.07132 9.32851 5.09195V5.33647L9.57139 5.37961L9.7333 5.41798C9.72721 5.4257 9.72431 5.43549 9.72519 5.44531C9.72608 5.45513 9.73069 5.46422 9.73807 5.47071H9.72377Z" fill="#83AFDD" stroke="#3F78AE" stroke-width="0.877698"/>
<path d="M11.4476 9.05756C11.419 9.08759 11.382 9.10819 11.3415 9.11664C11.301 9.1251 11.2589 9.12101 11.2208 9.10492C11.1827 9.08884 11.1502 9.06151 11.1278 9.02653C11.1054 8.99154 11.094 8.95055 11.0952 8.90894V1.08459C11.0934 0.982915 11.1123 0.881952 11.1508 0.78794C11.1893 0.693929 11.2466 0.608863 11.319 0.538026C11.389 0.464604 11.4735 0.406659 11.5669 0.367866C11.6604 0.329072 11.7609 0.310293 11.8619 0.312706H19.672C19.773 0.310293 19.8735 0.329072 19.9669 0.367866C20.0604 0.406659 20.1448 0.464604 20.2148 0.538026C20.2873 0.608863 20.3446 0.693929 20.3831 0.78794C20.4216 0.881952 20.4405 0.982915 20.4387 1.08459V6.98161C20.4387 7.18677 20.358 7.3836 20.2144 7.52912C20.0707 7.67464 19.8757 7.75703 19.672 7.7583H13.0049C12.9234 7.75712 12.8425 7.77266 12.7672 7.80398C12.6918 7.8353 12.6236 7.88174 12.5667 7.94047L11.4476 9.05756Z" fill="#C35A9E" stroke="#B42E7E" stroke-width="0.625899"/>
<path d="M19.1862 1.76074H12.5477V2.59495H19.1862V1.76074Z" fill="white"/>
<path d="M17.5242 3.42871H12.5477V4.26292H17.5242V3.42871Z" fill="white"/>
<path d="M15.867 5.10156H12.5477V5.93577H15.867V5.10156Z" fill="white"/>
</svg>
