<svg width="114" height="20" viewBox="0 0 114 20" fill="none" xmlns="http://www.w3.org/2000/svg">
<g clip-path="url(#clip0_41108_27596)">
<g clip-path="url(#clip1_41108_27596)">
<g clip-path="url(#clip2_41108_27596)">
<path d="M10.6688 6.64967C10.1688 6.14967 9.56875 5.74967 8.90209 5.48301C8.23542 5.18301 7.50209 5.04967 6.73542 5.04967C5.96875 5.04967 5.23542 5.18301 4.56875 5.48301C3.93542 5.74967 3.36875 6.11634 2.86875 6.58301V2.18301C2.86875 1.94967 2.76875 1.74967 2.63542 1.58301C2.30209 1.24967 1.76875 1.24967 1.43542 1.58301C1.26875 1.71634 1.20209 1.91634 1.20209 2.18301V15.1497C1.20209 15.3831 1.30209 15.5831 1.46875 15.7497C1.80209 16.0831 2.36875 16.0831 2.66875 15.7497C2.83542 15.5831 2.90209 15.3831 2.90209 15.1497V14.5497C3.40209 15.0164 3.96875 15.3831 4.60209 15.6831C5.26875 15.9831 6.00209 16.1164 6.76875 16.1164C7.53542 16.1164 8.26875 15.9831 8.93542 15.6831C9.60209 15.3831 10.2021 14.9831 10.7021 14.4831C11.2021 13.9831 11.6021 13.3831 11.9021 12.7164C12.2021 12.0497 12.3354 11.3164 12.3354 10.5497C12.3354 9.78301 12.2021 9.04967 11.9021 8.38301C11.5688 7.71634 11.1688 7.14967 10.6688 6.64967ZM10.6021 10.5497C10.6021 11.083 10.5021 11.5831 10.3021 12.0497C10.1021 12.5164 9.83542 12.9164 9.50209 13.2831C9.16875 13.6164 8.73542 13.9164 8.26875 14.1164C7.33542 14.5164 6.16875 14.5164 5.23542 14.1164C4.76875 13.9164 4.36875 13.6164 4.00209 13.2831C3.66875 12.9497 3.36875 12.5164 3.20209 12.0497C3.00209 11.5831 2.90209 11.083 2.90209 10.5497C2.90209 10.0163 3.00209 9.51634 3.20209 9.04967C3.40209 8.58301 3.66875 8.18301 4.03542 7.81634C4.36875 7.48301 4.80209 7.18301 5.26875 6.98301C5.73542 6.78301 6.23542 6.68301 6.76875 6.68301C7.30209 6.68301 7.83542 6.78301 8.30209 6.98301C8.76875 7.18301 9.16875 7.44967 9.53542 7.78301C9.86875 8.11634 10.1688 8.54967 10.3354 9.01634C10.5021 9.54967 10.6021 10.0497 10.6021 10.5497Z" fill="#636466"/>
<path d="M24.9325 2.18337C24.9325 1.95003 24.8325 1.75003 24.6659 1.58337C24.3325 1.25003 23.7659 1.28337 23.4659 1.58337C23.2992 1.75003 23.2325 1.95003 23.2325 2.18337V6.55003C22.8325 6.18337 22.3992 5.85003 21.9325 5.6167C21.1659 5.2167 20.3325 5.0167 19.3992 5.0167C18.6325 5.0167 17.9325 5.15003 17.2325 5.45003C16.5659 5.75003 15.9659 6.1167 15.4659 6.6167C14.9659 7.1167 14.5659 7.7167 14.2659 8.38337C13.9659 9.05003 13.8325 9.78337 13.8325 10.55C13.8325 11.3167 13.9659 12.05 14.2659 12.7167C14.5659 13.3833 14.9659 13.9833 15.4659 14.4833C15.9659 14.9833 16.5659 15.3833 17.2325 15.6833C17.8992 15.9833 18.6325 16.1167 19.3992 16.1167C20.2992 16.1167 21.1659 15.9167 21.9325 15.5167C22.4325 15.25 22.8659 14.95 23.2325 14.5833V15.15C23.2325 15.3833 23.3325 15.5833 23.4659 15.75C23.7992 16.0833 24.3325 16.0833 24.6659 15.75C24.8325 15.5833 24.9325 15.3833 24.9325 15.15V2.18337ZM17.8659 14.0833C17.3992 13.8833 16.9992 13.6167 16.6659 13.25C16.3325 12.9167 16.0325 12.4833 15.8659 12.0167C15.6659 11.55 15.5659 11.05 15.5659 10.5167C15.5659 9.98337 15.6659 9.48337 15.8659 9.0167C16.0659 8.55003 16.3325 8.15003 16.6659 7.8167C16.9992 7.48337 17.4325 7.18337 17.8992 7.0167C18.3659 6.8167 18.8659 6.7167 19.3992 6.7167C19.9325 6.7167 20.4325 6.8167 20.8992 7.0167C21.3659 7.2167 21.7659 7.48337 22.1325 7.8167C22.4659 8.15003 22.7659 8.58337 22.9325 9.0167C23.1325 9.48337 23.2325 9.98337 23.2325 10.5167C23.2325 11.05 23.1325 11.55 22.9325 12.0167C22.7325 12.4833 22.4659 12.8833 22.1325 13.25C21.7992 13.5833 21.3992 13.8833 20.9325 14.0833C19.9659 14.4833 18.7992 14.4833 17.8659 14.0833Z" fill="#636466"/>
<path d="M28.3306 1.9834C28.0639 1.9834 27.7972 2.0834 27.6306 2.2834C27.4306 2.4834 27.3306 2.71673 27.3306 2.9834C27.3306 3.25007 27.4306 3.4834 27.6306 3.6834C27.8306 3.8834 28.0639 3.9834 28.3306 3.9834C28.6306 3.9834 28.8639 3.8834 29.0639 3.6834C29.2639 3.4834 29.3639 3.25007 29.3639 2.9834C29.3639 2.6834 29.2639 2.45007 29.0639 2.25007C28.8639 2.0834 28.5972 1.9834 28.3306 1.9834Z" fill="#636466"/>
<path d="M27.7327 5.2832C27.566 5.44987 27.4994 5.64987 27.4994 5.8832V15.5498C27.4994 15.7832 27.466 16.0165 27.366 16.2498C27.266 16.4498 27.1327 16.6498 26.966 16.8165C26.7993 16.9832 26.5993 17.1165 26.3993 17.2165C26.1993 17.3165 25.966 17.3498 25.6993 17.3498H25.5327C25.2993 17.3498 25.0993 17.4498 24.9327 17.5832C24.766 17.7498 24.666 17.9498 24.666 18.1832C24.666 18.4165 24.766 18.6165 24.9327 18.7832C25.0993 18.9498 25.2993 19.0165 25.5327 19.0165C25.566 19.0165 25.566 19.0165 25.5993 19.0165H25.6993C26.166 19.0165 26.5994 18.9165 27.0327 18.7498C27.466 18.5832 27.8327 18.3165 28.1327 18.0165C28.4327 17.7165 28.6993 17.3498 28.8993 16.9165C29.0993 16.4832 29.1993 16.0498 29.1993 15.5832V5.91654C29.1993 5.6832 29.0994 5.44987 28.966 5.2832C28.6327 4.94987 28.066 4.94987 27.7327 5.2832Z" fill="#636466"/>
<path d="M40.5981 6.64896C40.0981 6.14896 39.4981 5.74896 38.8315 5.44896C38.1648 5.14896 37.4315 5.01562 36.6648 5.01562C35.8981 5.01562 35.1981 5.14896 34.4981 5.44896C33.8315 5.74896 33.2315 6.14896 32.7315 6.64896C32.2315 7.14896 31.8315 7.74896 31.5315 8.41563C31.2315 9.08229 31.0981 9.81562 31.0981 10.5823C31.0981 11.349 31.2315 12.049 31.5315 12.749C31.8315 13.4156 32.2315 14.0156 32.7315 14.5156C33.2315 15.0156 33.8315 15.4156 34.4981 15.7156C35.1648 16.0156 35.8981 16.149 36.6648 16.149C37.4315 16.149 38.1648 16.0156 38.8315 15.7156C39.4981 15.4156 40.0981 15.0156 40.5981 14.5156C41.0981 14.0156 41.4981 13.4156 41.7981 12.749C42.0981 12.0823 42.2315 11.349 42.2315 10.5823C42.2315 9.81562 42.0981 9.08229 41.7981 8.41563C41.4981 7.74896 41.0981 7.14896 40.5981 6.64896ZM32.8315 10.5823C32.8315 10.049 32.9315 9.54896 33.1315 9.08229C33.3315 8.61562 33.5981 8.21562 33.9315 7.84896C34.2648 7.51562 34.6981 7.21562 35.1648 7.01562C35.6315 6.81562 36.1315 6.71562 36.6648 6.71562C37.1981 6.71562 37.6981 6.81562 38.1648 7.01562C38.6315 7.21562 39.0315 7.48229 39.3981 7.84896C39.7315 8.18229 40.0315 8.61562 40.1981 9.08229C40.3981 9.54896 40.4981 10.049 40.4981 10.5823C40.4981 11.1156 40.3981 11.6156 40.1981 12.049C39.9981 12.5156 39.7315 12.9156 39.3981 13.2823C39.0648 13.6156 38.6648 13.9156 38.1981 14.1156C37.2648 14.5156 36.0981 14.5156 35.1981 14.1156C34.7315 13.9156 34.3315 13.6156 33.9648 13.2823C33.6315 12.949 33.3315 12.5156 33.1648 12.049C32.9315 11.6156 32.8315 11.1156 32.8315 10.5823Z" fill="#636466"/>
<path d="M53.6666 6.64967C53.1666 6.14967 52.5666 5.74967 51.8999 5.48301C51.2332 5.18301 50.4999 5.04967 49.7332 5.04967C48.9666 5.04967 48.2332 5.18301 47.5666 5.48301C46.9332 5.74967 46.3666 6.11634 45.8666 6.58301V2.18301C45.8666 1.94967 45.7666 1.74967 45.6332 1.58301C45.2999 1.24967 44.7666 1.24967 44.4332 1.58301C44.2666 1.74967 44.1666 1.94967 44.1666 2.18301V15.1497C44.1666 15.3831 44.2666 15.5831 44.4332 15.7497C44.7666 16.0831 45.3332 16.0831 45.6332 15.7497C45.7999 15.5831 45.8666 15.3831 45.8666 15.1497V14.5497C46.3666 15.0164 46.9332 15.3831 47.5666 15.6831C48.2332 15.9831 48.9666 16.1164 49.7332 16.1164C50.4999 16.1164 51.2332 15.9831 51.8999 15.6831C52.5666 15.3831 53.1666 14.9831 53.6666 14.4831C54.1666 13.9831 54.5666 13.3831 54.8666 12.7164C55.1666 12.0497 55.2999 11.3164 55.2999 10.5497C55.2999 9.78301 55.1666 9.04967 54.8666 8.38301C54.5666 7.71634 54.1666 7.14967 53.6666 6.64967ZM53.5666 10.5497C53.5666 11.083 53.4666 11.5831 53.2666 12.0497C53.0666 12.5164 52.7999 12.9164 52.4666 13.2831C52.1332 13.6164 51.6999 13.9164 51.2332 14.1164C50.2999 14.5164 49.1332 14.5164 48.1999 14.1164C47.7332 13.9164 47.3332 13.6164 46.9666 13.2831C46.6332 12.9497 46.3332 12.5164 46.1666 12.0497C45.9666 11.5831 45.8666 11.083 45.8666 10.5497C45.8666 10.0163 45.9666 9.51634 46.1666 9.04967C46.3666 8.58301 46.6332 8.18301 46.9999 7.81634C47.3332 7.48301 47.7666 7.18301 48.2332 6.98301C48.6999 6.78301 49.1999 6.68301 49.7332 6.68301C50.2666 6.68301 50.7999 6.78301 51.2666 6.98301C51.7332 7.18301 52.1332 7.44967 52.4999 7.78301C52.8332 8.11634 53.1332 8.54967 53.2999 9.01634C53.4666 9.54967 53.5666 10.0497 53.5666 10.5497Z" fill="#636466"/>
<path d="M64.0366 11.5498C63.8366 11.2164 63.5366 10.8832 63.1699 10.6498C62.8366 10.4165 62.4032 10.2165 61.9699 10.0498C61.5366 9.88316 61.0699 9.74983 60.5699 9.58316C60.2699 9.48316 60.0032 9.41649 59.7366 9.31649C59.5032 9.21649 59.2699 9.11649 59.1032 8.98316C58.9366 8.84983 58.8032 8.71649 58.7032 8.54983C58.6032 8.41649 58.5699 8.21649 58.5699 7.98316C58.5699 7.71649 58.6366 7.51649 58.7366 7.34983C58.8366 7.18316 59.0032 7.04983 59.1699 6.91649C59.3699 6.81649 59.5699 6.71649 59.8032 6.68316C60.5032 6.51649 61.2032 6.58316 61.7032 6.84983C62.0366 7.01649 62.3366 7.31649 62.6366 7.68316L62.6699 7.74983L62.7366 7.78316C62.9032 7.88316 63.0699 7.91649 63.2699 7.84983C63.4366 7.81649 63.5699 7.74983 63.7032 7.61649C63.9366 7.38316 64.0032 7.01649 63.8032 6.68316C63.6366 6.38316 63.4366 6.14983 63.2032 5.91649C62.9699 5.71649 62.7032 5.51649 62.4032 5.38316C62.1032 5.24983 61.8032 5.14983 61.4699 5.08316C60.7366 4.94983 59.9366 4.94983 59.2032 5.14983C58.7699 5.28316 58.3699 5.44983 58.0366 5.68316C57.6699 5.91649 57.4032 6.24983 57.1699 6.61649C56.9366 6.98316 56.8366 7.44983 56.8366 7.94983C56.8366 8.41649 56.9366 8.81649 57.1366 9.18316C57.3366 9.51649 57.6032 9.81649 57.9032 10.0498C58.2032 10.2832 58.5699 10.4832 58.9366 10.6498C59.3032 10.8165 59.7032 10.9498 60.1032 11.0832C60.4699 11.1831 60.8366 11.3164 61.1699 11.4164C61.5032 11.5164 61.7699 11.6498 62.0032 11.8164C62.2366 11.9498 62.4032 12.1164 62.5032 12.2831C62.6032 12.4498 62.6699 12.6498 62.6699 12.8831C62.6699 13.1164 62.6032 13.3164 62.5032 13.5164C62.4032 13.7164 62.2366 13.8831 62.0366 14.0164C61.8366 14.1498 61.6032 14.2831 61.3366 14.3498C61.0699 14.4164 60.8032 14.4831 60.5032 14.4831C59.9366 14.4831 59.4366 14.3831 59.0366 14.1831C58.6699 13.9831 58.3699 13.7164 58.1032 13.2831L58.0699 13.2498C57.9032 13.0498 57.7032 12.9164 57.5032 12.8831C57.3032 12.8498 57.1032 12.8831 56.9366 12.9831C56.7699 13.0831 56.6366 13.2498 56.5699 13.4498C56.5032 13.6498 56.5366 13.8831 56.6699 14.1164C56.8366 14.4498 57.0699 14.7498 57.3366 14.9831C57.6032 15.2164 57.9032 15.4164 58.2366 15.5831C58.5699 15.7498 58.9366 15.8498 59.3032 15.9498C59.6699 16.0164 60.0699 16.0498 60.4699 16.0498C61.0032 16.0498 61.4699 15.9831 61.9366 15.8164C62.4032 15.6498 62.8032 15.4164 63.1366 15.1498C63.5032 14.8498 63.7699 14.5164 63.9699 14.1164C64.1699 13.7164 64.2699 13.2831 64.2699 12.8164C64.3699 12.3498 64.2366 11.9164 64.0366 11.5498Z" fill="#636466"/>
<path d="M99.5356 19.2H67.9689L70.1356 8.3C70.9689 4.06666 74.6689 1 79.0022 1H112.136L110.336 10.1C109.302 15.4 104.769 19.2 99.5356 19.2Z" fill="#0DB14B"/>
<path d="M76.5685 15.0328H73.9019L76.6018 4.63281C76.6018 4.63281 80.4685 4.63281 81.8018 4.63281C83.1352 4.63281 84.3019 5.76615 83.9019 7.79948C83.5019 9.86615 82.1352 11.2328 81.1019 11.7328C80.0685 12.2328 77.5352 11.9661 77.5352 11.9661L76.5685 15.0328ZM79.6019 9.56615C80.3352 9.59948 80.9685 9.33281 81.2685 8.83281C81.5685 8.36615 81.8685 7.13281 80.5018 7.13281C79.1352 7.13281 78.8352 7.13281 78.8352 7.13281C78.8352 7.13281 78.1019 9.39948 78.1352 9.46615C78.1685 9.46615 78.8685 9.53281 79.6019 9.56615Z" fill="white"/>
<path d="M86.135 15.0663C86.1017 15.033 83.1683 15.033 83.1683 15.033L86.135 4.59961C86.135 4.59961 89.635 4.59961 91.6683 4.59961C93.7017 4.59961 94.1683 6.93294 93.935 8.39961C93.5683 10.4663 90.8683 11.5996 90.8683 11.5996L92.7017 15.0996H89.3017L88.0017 11.6663H87.0683L86.135 15.0663ZM89.2683 9.43294C89.2683 9.43294 90.335 9.53294 90.7683 8.99961C91.2017 8.46628 91.335 7.23294 90.3683 7.23294C89.4017 7.23294 88.2017 7.23294 88.2017 7.23294L87.6017 9.29961L89.2683 9.43294Z" fill="white"/>
<path d="M103.701 13.4335C101.201 15.7668 97.6681 16.1002 95.8348 14.1335C94.0014 12.1668 94.5681 8.70018 97.0681 6.33351C99.5681 3.96684 103.101 3.66684 104.935 5.63351C106.768 7.60018 106.201 11.1002 103.701 13.4335ZM102.668 7.73351C101.768 6.76684 100.001 6.90018 98.7348 8.10018C97.4681 9.26684 97.2014 11.0335 98.1014 12.0002C99.0014 12.9668 100.768 12.8335 102.035 11.6335C103.335 10.4668 103.601 8.73351 102.668 7.73351Z" fill="white"/>
</g>
</g>
</g>
<defs>
<clipPath id="clip0_41108_27596">
<rect width="113.333" height="20" fill="white"/>
</clipPath>
<clipPath id="clip1_41108_27596">
<rect width="113.333" height="20" fill="white"/>
</clipPath>
<clipPath id="clip2_41108_27596">
<rect width="113.333" height="20" fill="white"/>
</clipPath>
</defs>
</svg>
