<svg width="20" height="20" viewBox="0 0 20 20" fill="none" xmlns="http://www.w3.org/2000/svg">
<g clip-path="url(#clip0_31749_1918)">
<path fill-rule="evenodd" clip-rule="evenodd" d="M14.0353 5.45722C13.0028 4.47247 11.6249 3.936 10.1992 3.95805C7.59036 3.95805 5.37468 5.71809 4.58467 8.08809V8.08815C4.16578 9.33011 4.16578 10.675 4.58466 11.9169H4.58833C5.38201 14.2833 7.59403 16.0433 10.2029 16.0433C11.5496 16.0433 12.7057 15.6989 13.6018 15.0904V15.088C14.6563 14.3898 15.3765 13.2912 15.6007 12.0492H10.1992V8.19839H19.6315C19.7491 8.86714 19.8042 9.55059 19.8042 10.2304C19.8042 13.2719 18.7172 15.8434 16.8259 17.5851L16.8279 17.5866C15.1707 19.1151 12.8963 20.0007 10.1992 20.0007C6.41821 20.0007 2.96055 17.8695 1.26296 14.4927V14.4927C-0.155365 11.667 -0.155362 8.338 1.26297 5.51236H1.26299L1.26296 5.51234C2.96055 2.13185 6.41821 0.000673888 10.1992 0.000673888C12.6831 -0.0287217 15.0825 0.904587 16.8904 2.60218L14.0353 5.45722Z" fill="#667085"/>
</g>
<defs>
<clipPath id="clip0_31749_1918">
<rect width="20" height="20" fill="white"/>
</clipPath>
</defs>
</svg>
