<svg width="12" height="16" viewBox="0 0 12 16" fill="none" xmlns="http://www.w3.org/2000/svg">
<path d="M11.7302 2.63198V14.8623C11.7289 15.0914 11.638 15.3109 11.4772 15.4729C11.3164 15.635 11.0987 15.7266 10.8713 15.7279H1.12347C1.01091 15.7279 0.899461 15.7055 0.79553 15.6619C0.6916 15.6184 0.597238 15.5545 0.517877 15.4741C0.438517 15.3936 0.37573 15.2981 0.333111 15.1931C0.290491 15.0881 0.268888 14.9757 0.269546 14.8623V1.13717C0.268888 1.02372 0.290491 0.911275 0.333111 0.806275C0.37573 0.701274 0.438517 0.6058 0.517877 0.525348C0.597238 0.444895 0.6916 0.381051 0.79553 0.337485C0.899461 0.293919 1.01091 0.271482 1.12347 0.271484H9.40313L11.7302 2.63198Z" fill="#84AFDD"/>
<path d="M9.13859 0H1.1236C0.825548 0.00264386 0.540522 0.123487 0.33023 0.336375C0.119938 0.549263 0.00130149 0.837054 0 1.13745V14.8625C0.00130149 15.1629 0.119938 15.4507 0.33023 15.6636C0.540522 15.8765 0.825548 15.9974 1.1236 16H10.8714C11.1375 16.0008 11.3948 15.9042 11.5955 15.7282C11.7201 15.6215 11.8203 15.4889 11.8893 15.3395C11.9582 15.19 11.9943 15.0273 11.995 14.8625V2.90405L9.13859 0ZM11.4607 3.33186V14.8625C11.4594 15.0196 11.3969 15.1699 11.2866 15.281C11.1764 15.3921 11.0273 15.4551 10.8714 15.4564H1.1236C0.968115 15.4538 0.819732 15.3904 0.709776 15.2796C0.59982 15.1688 0.536906 15.0192 0.534336 14.8625V1.13745C0.536906 0.980752 0.59982 0.831201 0.709776 0.72038C0.819732 0.609559 0.968115 0.546151 1.1236 0.543561H8.37953V3.33186H11.4607ZM9.67791 0.543561H8.37953V3.33186H11.4607V2.36048L9.67791 0.543561ZM9.14357 0L8.38452 3.33186L12 2.90405L9.14357 0Z" fill="#3E78AF"/>
<path d="M5.0839 8.41427C6.88762 8.41427 8.34982 6.94056 8.34982 5.12266C8.34982 3.30476 6.88762 1.83105 5.0839 1.83105C3.28018 1.83105 1.81799 3.30476 1.81799 5.12266C1.81799 6.94056 3.28018 8.41427 5.0839 8.41427Z" fill="#C35A9E" stroke="white" stroke-width="0.834532"/>
<path d="M3.95953 1.64062C3.16007 1.90122 2.47467 2.43251 2.01957 3.14438C1.56448 3.85624 1.36771 4.70485 1.46265 5.54626L5.06815 5.12349L3.95953 1.64062Z" fill="#C35A9E" stroke="white" stroke-width="1.00144"/>
<path d="M9.73258 11.9483H2.95106C2.9194 11.9476 2.88792 11.9534 2.85853 11.9653C2.82914 11.9772 2.80245 11.995 2.78006 12.0175C2.75766 12.0401 2.74003 12.067 2.72823 12.0966C2.71642 12.1262 2.71068 12.158 2.71136 12.1899C2.71136 12.254 2.73661 12.3154 2.78157 12.3607C2.82652 12.406 2.88749 12.4315 2.95106 12.4315H9.73258C9.79575 12.4302 9.856 12.4043 9.90067 12.3593C9.94535 12.3143 9.97101 12.2536 9.97229 12.1899C9.97229 12.1582 9.96609 12.1267 9.95404 12.0974C9.942 12.0681 9.92434 12.0415 9.90208 12.0191C9.87982 11.9966 9.85341 11.9788 9.82432 11.9667C9.79524 11.9545 9.76406 11.9483 9.73258 11.9483Z" fill="white"/>
<path d="M9.73258 10.4834H2.95106C2.88749 10.4834 2.82652 10.5089 2.78157 10.5542C2.73661 10.5995 2.71136 10.6609 2.71136 10.725C2.71068 10.7569 2.71642 10.7886 2.72823 10.8182C2.74003 10.8479 2.75766 10.8748 2.78006 10.8973C2.80245 10.9199 2.82914 10.9377 2.85853 10.9496C2.88792 10.9615 2.9194 10.9673 2.95106 10.9666H9.73258C9.79615 10.9666 9.85712 10.9411 9.90208 10.8958C9.94703 10.8505 9.97229 10.7891 9.97229 10.725C9.97101 10.6613 9.94535 10.6006 9.90067 10.5556C9.856 10.5106 9.79575 10.4847 9.73258 10.4834Z" fill="white"/>
</svg>
