<svg width="16" height="20" viewBox="0 0 16 20" fill="none" xmlns="http://www.w3.org/2000/svg">
<path d="M9.65707 14.0402H0.998205C0.898859 14.0402 0.800485 14.0202 0.708701 13.9814C0.616917 13.9425 0.533519 13.8856 0.463271 13.8139C0.393022 13.7421 0.337303 13.6569 0.299284 13.5632C0.261266 13.4694 0.241699 13.3689 0.241699 13.2674V1.01495C0.241699 0.810003 0.321397 0.613447 0.463271 0.468526C0.605144 0.323605 0.797566 0.242188 0.998205 0.242188H9.65707C9.85771 0.242188 10.0501 0.323605 10.192 0.468526C10.3339 0.613447 10.4136 0.810003 10.4136 1.01495V13.2674C10.4124 13.472 10.3323 13.6679 10.1907 13.8125C10.0491 13.9572 9.85734 14.039 9.65707 14.0402Z" fill="#83AFDD"/>
<path d="M9.65691 14.2821H0.998042C0.734496 14.2809 0.482017 14.1738 0.295234 13.9839C0.108451 13.7939 0.00239322 13.5365 0 13.2673V1.01483C0.00239322 0.745631 0.108451 0.488219 0.295234 0.298295C0.482017 0.108371 0.734496 0.00121258 0.998042 0H9.65691C9.92045 0.00121258 10.1729 0.108371 10.3597 0.298295C10.5465 0.488219 10.6526 0.745631 10.655 1.01483V13.2673C10.6526 13.5365 10.5465 13.7939 10.3597 13.9839C10.1729 14.1738 9.92045 14.2809 9.65691 14.2821ZM0.998042 0.484131C0.859831 0.484125 0.727218 0.539888 0.629062 0.63928C0.530906 0.738673 0.475158 0.873655 0.473956 1.01483V13.2673C0.475158 13.4085 0.530906 13.5435 0.629062 13.6429C0.727218 13.7422 0.859831 13.798 0.998042 13.798H9.65691C9.79433 13.7968 9.92578 13.7405 10.023 13.6412C10.1201 13.542 10.1752 13.4077 10.1764 13.2673V1.01483C10.1752 0.874458 10.1201 0.740176 10.023 0.640914C9.92578 0.541652 9.79433 0.485346 9.65691 0.484131H0.998042Z" fill="#3F78AE"/>
<path d="M8.31246 7.32228H2.22391C2.12737 7.29548 2.04214 7.23698 1.98138 7.15579C1.92062 7.07461 1.8877 6.97525 1.8877 6.87305C1.8877 6.77086 1.92062 6.67151 1.98138 6.59033C2.04214 6.50914 2.12737 6.45063 2.22391 6.42383H8.32613C8.447 6.42383 8.56291 6.47288 8.64838 6.56018C8.73384 6.64748 8.78186 6.76588 8.78186 6.88935C8.77366 7.00953 8.72018 7.1218 8.63264 7.20253C8.54511 7.28327 8.43034 7.32618 8.31246 7.32228Z" fill="white"/>
<path d="M8.31246 9.62697H2.22391C2.12737 9.60017 2.04214 9.54167 1.98138 9.46048C1.92062 9.37929 1.8877 9.27993 1.8877 9.17774C1.8877 9.07555 1.92062 8.97619 1.98138 8.895C2.04214 8.81382 2.12737 8.75532 2.22391 8.72852H8.32613C8.447 8.72852 8.56291 8.77755 8.64838 8.86486C8.73384 8.95216 8.78186 9.07057 8.78186 9.19404C8.77366 9.31422 8.72018 9.42647 8.63264 9.5072C8.54511 9.58794 8.43034 9.63087 8.31246 9.62697Z" fill="white"/>
<path d="M8.31246 11.9317H2.22391C2.12737 11.9049 2.04214 11.8464 1.98138 11.7652C1.92062 11.684 1.8877 11.5846 1.8877 11.4824C1.8877 11.3802 1.92062 11.2809 1.98138 11.1997C2.04214 11.1185 2.12737 11.06 2.22391 11.0332H8.32613C8.447 11.0332 8.56291 11.0823 8.64838 11.1696C8.73384 11.2569 8.78186 11.3753 8.78186 11.4987C8.77366 11.6189 8.72018 11.7312 8.63264 11.8119C8.54511 11.8926 8.43034 11.9356 8.31246 11.9317Z" fill="white"/>
<path d="M3.23128 3.39332C3.41155 3.39332 3.58778 3.33873 3.73767 3.23642C3.88755 3.13412 4.00438 2.98871 4.07336 2.81858C4.14235 2.64846 4.16039 2.46125 4.12523 2.28065C4.09006 2.10005 4.00325 1.93414 3.87578 1.80394C3.74831 1.67373 3.58591 1.58507 3.4091 1.54914C3.2323 1.51322 3.04903 1.53165 2.88248 1.60212C2.71594 1.67259 2.57358 1.79193 2.47343 1.94504C2.37328 2.09814 2.31982 2.27814 2.31982 2.46228C2.31982 2.70921 2.41585 2.94602 2.58678 3.12063C2.75772 3.29523 2.98955 3.39332 3.23128 3.39332Z" fill="white"/>
<path d="M4.2064 3.39355C4.08841 3.52522 3.94603 3.63169 3.7875 3.70678C3.62897 3.78187 3.45743 3.8241 3.28282 3.83103C3.1082 3.83796 2.93397 3.80945 2.77022 3.74714C2.60646 3.68484 2.45643 3.58997 2.3288 3.46804C1.87307 3.98942 1.8047 4.89719 2.03257 5.05546C2.85252 5.35958 3.75104 5.35958 4.57099 5.05546C4.79885 4.88322 4.70315 3.90097 4.2064 3.39355Z" fill="white"/>
<path d="M13.9998 7.92716C13.9771 8.07613 13.9634 8.22509 13.936 8.3694C13.8124 9.04918 13.5499 9.69474 13.1659 10.2641C12.7296 10.9213 12.1979 11.5068 11.589 12.0005C11.0537 12.4417 10.4712 12.8196 9.85271 13.127C9.82904 13.1433 9.80005 13.1496 9.77195 13.1443C9.74385 13.1391 9.71885 13.1229 9.70232 13.0991C9.0643 12.4411 8.42324 11.7879 7.77914 11.1392C7.75455 11.1191 7.73814 11.0903 7.73309 11.0585C7.72804 11.0267 7.73471 10.9941 7.7518 10.967C8.33535 9.71285 9.20414 8.61948 10.2857 7.7782C10.8837 7.3061 11.5786 6.97827 12.3182 6.81923C12.8239 6.71911 13.3438 6.71911 13.8495 6.81923C13.9042 6.81923 13.9224 6.85181 13.9315 6.90768C13.9315 7.06595 13.9771 7.22423 13.9998 7.3732V7.92716ZM11.8716 9.78924C12.0663 9.78924 12.2566 9.73026 12.4185 9.61977C12.5804 9.50929 12.7065 9.35225 12.781 9.16852C12.8555 8.98478 12.875 8.78261 12.8371 8.58756C12.7991 8.3925 12.7053 8.21334 12.5677 8.07271C12.43 7.93209 12.2546 7.83631 12.0636 7.79752C11.8727 7.75872 11.6748 7.77863 11.4949 7.85474C11.315 7.93085 11.1613 8.05972 11.0531 8.22508C10.9449 8.39043 10.8872 8.58485 10.8872 8.78372C10.8854 8.91694 10.9095 9.0492 10.9582 9.17281C11.0068 9.29642 11.0791 9.40892 11.1707 9.50378C11.2622 9.59863 11.3714 9.67395 11.4917 9.72536C11.612 9.77676 11.7412 9.80322 11.8716 9.80321V9.78924Z" fill="#C35A9E" stroke="white" stroke-width="2.48921"/>
<path d="M7.65154 14.4121C7.64952 14.5904 7.60175 14.7651 7.51298 14.9187C7.42422 15.0722 7.29757 15.1993 7.14568 15.2873C6.8923 15.4426 6.61491 15.5528 6.32536 15.6131L5.38656 15.8831C5.33912 15.9021 5.28738 15.907 5.23735 15.8971C5.18733 15.8872 5.14109 15.863 5.10401 15.8273C5.06675 15.7889 5.04162 15.74 5.03187 15.6869C5.02212 15.6338 5.0282 15.5789 5.04932 15.5293L5.40479 14.2305C5.4666 14.0088 5.57033 13.8017 5.71013 13.6207C5.80768 13.4981 5.93006 13.3986 6.06886 13.3289C6.20765 13.2593 6.35956 13.2211 6.51416 13.2171C6.66876 13.2132 6.82237 13.2434 6.96443 13.3059C7.10648 13.3683 7.23361 13.4614 7.33708 13.5788C7.44104 13.6894 7.52239 13.8201 7.57638 13.9631C7.63037 14.1062 7.65592 14.2588 7.65154 14.4121Z" fill="#C35A9E" stroke="white" stroke-width="2.48921"/>
<path d="M7.3418 10.609C6.51221 10.4321 5.65576 10.4321 4.82617 10.609C5.25477 10.1234 5.78415 9.74169 6.37565 9.4918C6.96182 9.24652 7.59303 9.13376 8.22591 9.16128L7.3418 10.609Z" fill="#C35A9E" stroke="white" stroke-width="2.48921"/>
<path d="M10.1035 15.9997C10.2627 15.2034 10.272 14.3835 10.1309 13.5836L11.5254 12.7178C11.5287 13.3364 11.4037 13.9486 11.1586 14.5143C10.9135 15.08 10.5539 15.5862 10.1035 15.9997Z" fill="#C35A9E" stroke="white" stroke-width="2.48921"/>
<path d="M9.34262 13.4821L8.88689 13.9476L6.96826 11.9831L7.42399 11.5176L9.34262 13.4821Z" fill="#C35A9E" stroke="white" stroke-width="2.48921"/>
<path d="M11.8716 9.29205C11.7769 9.29205 11.6844 9.26338 11.6057 9.20967C11.527 9.15596 11.4657 9.07962 11.4295 8.9903C11.3933 8.90099 11.3838 8.80271 11.4023 8.70789C11.4207 8.61307 11.4663 8.52599 11.5332 8.45763C11.6001 8.38927 11.6854 8.34271 11.7782 8.32385C11.8711 8.30498 11.9673 8.31467 12.0547 8.35166C12.1421 8.38866 12.2169 8.4513 12.2695 8.53169C12.322 8.61207 12.3501 8.70658 12.3501 8.80326C12.3489 8.93252 12.2981 9.05614 12.2086 9.14754C12.1191 9.23895 11.9981 9.29084 11.8716 9.29205Z" fill="#C35A9E" stroke="white" stroke-width="2.48921"/>
<path d="M13.9998 7.92716C13.9771 8.07613 13.9634 8.22509 13.936 8.3694C13.8124 9.04918 13.5499 9.69474 13.1659 10.2641C12.7296 10.9213 12.1979 11.5068 11.589 12.0005C11.0537 12.4417 10.4712 12.8196 9.85271 13.127C9.82904 13.1433 9.80005 13.1496 9.77195 13.1443C9.74385 13.1391 9.71885 13.1229 9.70232 13.0991C9.0643 12.4411 8.42324 11.7879 7.77914 11.1392C7.75455 11.1191 7.73814 11.0903 7.73309 11.0585C7.72804 11.0267 7.73471 10.9941 7.7518 10.967C8.33535 9.71285 9.20414 8.61948 10.2857 7.7782C10.8837 7.3061 11.5786 6.97827 12.3182 6.81923C12.8239 6.71911 13.3438 6.71911 13.8495 6.81923C13.9042 6.81923 13.9224 6.85181 13.9315 6.90768C13.9315 7.06595 13.9771 7.22423 13.9998 7.3732V7.92716ZM11.8716 9.78924C12.0663 9.78924 12.2566 9.73026 12.4185 9.61977C12.5804 9.50929 12.7065 9.35225 12.781 9.16852C12.8555 8.98478 12.875 8.78261 12.8371 8.58756C12.7991 8.3925 12.7053 8.21334 12.5677 8.07271C12.43 7.93209 12.2546 7.83631 12.0636 7.79752C11.8727 7.75872 11.6748 7.77863 11.4949 7.85474C11.315 7.93085 11.1613 8.05972 11.0531 8.22508C10.9449 8.39043 10.8872 8.58485 10.8872 8.78372C10.8854 8.91694 10.9095 9.0492 10.9582 9.17281C11.0068 9.29642 11.0791 9.40892 11.1707 9.50378C11.2622 9.59863 11.3714 9.67395 11.4917 9.72536C11.612 9.77676 11.7412 9.80322 11.8716 9.80321V9.78924Z" fill="#C35A9E"/>
<path d="M7.65154 14.4121C7.64952 14.5904 7.60175 14.7651 7.51298 14.9187C7.42422 15.0722 7.29757 15.1993 7.14568 15.2873C6.8923 15.4426 6.61491 15.5528 6.32536 15.6131L5.38656 15.8831C5.33912 15.9021 5.28738 15.907 5.23735 15.8971C5.18733 15.8872 5.14109 15.863 5.10401 15.8273C5.06675 15.7889 5.04162 15.74 5.03187 15.6869C5.02212 15.6338 5.0282 15.5789 5.04932 15.5293L5.40479 14.2305C5.4666 14.0088 5.57033 13.8017 5.71013 13.6207C5.80768 13.4981 5.93006 13.3986 6.06886 13.3289C6.20765 13.2593 6.35956 13.2211 6.51416 13.2171C6.66876 13.2132 6.82237 13.2434 6.96443 13.3059C7.10648 13.3683 7.23361 13.4614 7.33708 13.5788C7.44104 13.6894 7.52239 13.8201 7.57638 13.9631C7.63037 14.1062 7.65592 14.2588 7.65154 14.4121Z" fill="#C35A9E"/>
<path d="M7.3418 10.609C6.51221 10.4321 5.65576 10.4321 4.82617 10.609C5.25477 10.1234 5.78415 9.74169 6.37565 9.4918C6.96182 9.24652 7.59303 9.13376 8.22591 9.16128L7.3418 10.609Z" fill="#C35A9E"/>
<path d="M10.1035 15.9997C10.2627 15.2034 10.272 14.3835 10.1309 13.5836L11.5254 12.7178C11.5287 13.3364 11.4037 13.9486 11.1586 14.5143C10.9135 15.08 10.5539 15.5862 10.1035 15.9997Z" fill="#C35A9E"/>
<path d="M9.34262 13.4821L8.88689 13.9476L6.96826 11.9831L7.42399 11.5176L9.34262 13.4821Z" fill="#C35A9E"/>
<path d="M11.8716 9.29205C11.7769 9.29205 11.6844 9.26338 11.6057 9.20967C11.527 9.15596 11.4657 9.07962 11.4295 8.9903C11.3933 8.90099 11.3838 8.80271 11.4023 8.70789C11.4207 8.61307 11.4663 8.52599 11.5332 8.45763C11.6001 8.38927 11.6854 8.34271 11.7782 8.32385C11.8711 8.30498 11.9673 8.31467 12.0547 8.35166C12.1421 8.38866 12.2169 8.4513 12.2695 8.53169C12.322 8.61207 12.3501 8.70658 12.3501 8.80326C12.3489 8.93252 12.2981 9.05614 12.2086 9.14754C12.1191 9.23895 11.9981 9.29084 11.8716 9.29205Z" fill="#C35A9E"/>
</svg>
