<svg width="14" height="16" viewBox="0 0 14 16" fill="none" xmlns="http://www.w3.org/2000/svg">
<mask id="mask0_41003_1042" style="mask-type:luminance" maskUnits="userSpaceOnUse" x="0" y="0" width="14" height="16">
<path d="M13.8187 0H0V16H13.8187V0Z" fill="white"/>
</mask>
<g mask="url(#mask0_41003_1042)">
<path d="M11.1607 2.6139V14.763C11.1661 14.9845 11.0842 15.1993 10.9327 15.3611C10.7812 15.5228 10.5722 15.6185 10.3508 15.6276H1.07374C0.963244 15.625 0.854363 15.6005 0.753401 15.5556C0.652439 15.5106 0.561413 15.446 0.485604 15.3656C0.409796 15.2852 0.350706 15.1905 0.311779 15.087C0.272852 14.9836 0.254865 14.8734 0.258842 14.763V1.13316C0.254865 1.02271 0.272852 0.912551 0.311779 0.809107C0.350706 0.705662 0.409796 0.61099 0.485604 0.530559C0.561413 0.450128 0.652439 0.385543 0.753401 0.340569C0.854363 0.295594 0.963244 0.271115 1.07374 0.268555H8.94953L11.1607 2.6139Z" fill="#83AFDD"/>
<path d="M8.69571 0H1.06839C0.777105 0.0103788 0.501632 0.135108 0.301666 0.347165C0.1017 0.559222 -0.00666636 0.841527 5.36746e-05 1.13292V14.7627C-0.00669589 15.0546 0.10151 15.3375 0.301348 15.5503C0.501185 15.7632 0.776663 15.889 1.06839 15.9006H10.3454C10.6015 15.8983 10.8477 15.8009 11.0361 15.6273C11.1567 15.5182 11.2528 15.3847 11.3179 15.2356C11.383 15.0866 11.4156 14.9254 11.4137 14.7627V2.88696L8.69571 0ZM10.9069 3.30932V14.7627C10.9109 14.9161 10.8542 15.0648 10.749 15.1765C10.6438 15.2882 10.4987 15.3538 10.3454 15.359H1.06839C0.915935 15.3525 0.77213 15.2864 0.668014 15.1748C0.563898 15.0633 0.50782 14.9153 0.51187 14.7627V1.13292C0.509094 0.980734 0.565599 0.83343 0.669454 0.722156C0.77331 0.610882 0.916375 0.544354 1.06839 0.53664H7.97522V3.33416L10.9069 3.30932ZM9.20255 0.53664H7.97522V3.33416H10.9069V2.34037L9.20255 0.53664ZM8.70566 0L7.97522 3.33416L11.4137 2.9118L8.70566 0Z" fill="#3F78AE"/>
<path d="M8.9094 8.15395H2.3802C2.24841 8.15395 2.12203 8.10159 2.02885 8.0084C1.93566 7.91522 1.8833 7.78884 1.8833 7.65705C1.8833 7.52527 1.93566 7.39887 2.02885 7.30569C2.12203 7.2125 2.24841 7.16016 2.3802 7.16016H8.92431C9.05086 7.16776 9.1697 7.22344 9.25653 7.31581C9.34337 7.40819 9.39162 7.53027 9.39139 7.65705C9.39145 7.78629 9.34114 7.91046 9.25115 8.00323C9.16117 8.096 9.03858 8.15007 8.9094 8.15395Z" fill="white"/>
<path d="M8.9094 10.7174H2.3802C2.24841 10.7174 2.12203 10.6651 2.02885 10.5719C1.93566 10.4787 1.8833 10.3523 1.8833 10.2205C1.8833 10.0887 1.93566 9.96236 2.02885 9.86918C2.12203 9.77599 2.24841 9.72363 2.3802 9.72363H8.92431C9.05609 9.72363 9.18247 9.77599 9.27566 9.86918C9.36884 9.96236 9.4212 10.0887 9.4212 10.2205C9.4212 10.3523 9.36884 10.4787 9.27566 10.5719C9.18247 10.6651 9.05609 10.7174 8.92431 10.7174H8.9094Z" fill="white"/>
<path d="M8.9094 13.2721H2.3802C2.24841 13.2721 2.12203 13.2198 2.02885 13.1266C1.93566 13.0334 1.8833 12.907 1.8833 12.7752C1.8833 12.6434 1.93566 12.5171 2.02885 12.4239C2.12203 12.3307 2.24841 12.2783 2.3802 12.2783H8.92431C9.05609 12.2783 9.18247 12.3307 9.27566 12.4239C9.36884 12.5171 9.4212 12.6434 9.4212 12.7752C9.4212 12.907 9.36884 13.0334 9.27566 13.1266C9.18247 13.2198 9.05609 13.2721 8.92431 13.2721H8.9094Z" fill="white"/>
<path d="M9.81904 15.6368C11.8278 15.6368 13.4563 14.0084 13.4563 11.9996C13.4563 9.99077 11.8278 8.3623 9.81904 8.3623C7.81023 8.3623 6.18176 9.99077 6.18176 11.9996C6.18176 14.0084 7.81023 15.6368 9.81904 15.6368Z" fill="#C35A9E" stroke="#3F78AE" stroke-width="1.97872"/>
<path fill-rule="evenodd" clip-rule="evenodd" d="M10.2462 11.7812L11.6375 10.5539C11.6492 10.5432 11.6586 10.5301 11.665 10.5156C11.6715 10.501 11.6748 10.4853 11.6748 10.4694C11.6748 10.4535 11.6715 10.4378 11.665 10.4232C11.6586 10.4087 11.6492 10.3956 11.6375 10.3849C11.6145 10.3636 11.5843 10.3518 11.553 10.3518C11.5217 10.3518 11.4915 10.3636 11.4685 10.3849L10.0822 11.6073C10.0036 11.5565 9.91236 11.529 9.81884 11.5278C9.72057 11.5278 9.6245 11.5569 9.54278 11.6115C9.46107 11.6661 9.39738 11.7437 9.35977 11.8345C9.32216 11.9253 9.31233 12.0252 9.3315 12.1216C9.35068 12.218 9.398 12.3065 9.46749 12.376C9.53699 12.4455 9.62551 12.4929 9.7219 12.512C9.81829 12.5312 9.91821 12.5214 10.009 12.4837C10.0998 12.4461 10.1774 12.3824 10.232 12.3007C10.2866 12.219 10.3157 12.1229 10.3157 12.0247C10.314 11.9389 10.29 11.855 10.2462 11.7812ZM9.67474 12.0098C9.67474 11.9813 9.6832 11.9534 9.69903 11.9297C9.71487 11.906 9.73738 11.8875 9.76371 11.8766C9.79004 11.8657 9.81901 11.8629 9.84696 11.8684C9.87491 11.874 9.90059 11.8877 9.92075 11.9079C9.9409 11.928 9.95461 11.9537 9.96017 11.9816C9.96573 12.0096 9.96289 12.0386 9.95198 12.0649C9.94108 12.0912 9.92261 12.1138 9.89891 12.1296C9.87521 12.1454 9.84734 12.1539 9.81884 12.1539C9.79905 12.1539 9.77948 12.1499 9.76131 12.142C9.74315 12.1342 9.72679 12.1227 9.71327 12.1082C9.69975 12.0938 9.68936 12.0767 9.68273 12.058C9.6761 12.0394 9.67338 12.0196 9.67474 11.9998V12.0098ZM6.54928 12.0098C6.54928 11.3619 6.74145 10.7286 7.10148 10.19C7.46151 9.65142 7.97323 9.23172 8.57186 8.98402C9.17049 8.73633 9.82915 8.67177 10.4645 8.79852C11.0998 8.92527 11.6833 9.23763 12.141 9.69608C12.5988 10.1545 12.9103 10.7385 13.036 11.374C13.1618 12.0095 13.0963 12.6681 12.8477 13.2663C12.5991 13.8646 12.1786 14.3756 11.6394 14.7349C11.1003 15.0941 10.4667 15.2853 9.81884 15.2843C9.38841 15.2836 8.96232 15.1981 8.56496 15.0327C8.1676 14.8672 7.80677 14.625 7.5031 14.3199C7.19943 14.0149 6.95888 13.653 6.79521 13.2548C6.63155 12.8567 6.54798 12.4303 6.54928 11.9998V12.0098ZM5.81885 12.0098C5.81885 12.8009 6.05344 13.5743 6.49296 14.232C6.93249 14.8898 7.55721 15.4025 8.28811 15.7053C9.01902 16.008 9.82329 16.0872 10.5992 15.9329C11.3751 15.7786 12.0879 15.3976 12.6473 14.8382C13.2067 14.2788 13.5876 13.5661 13.742 12.7901C13.8963 12.0142 13.8171 11.2099 13.5144 10.479C13.2116 9.74812 12.6989 9.12341 12.0411 8.68388C11.3833 8.24436 10.61 8.00977 9.81884 8.00977C8.7597 8.00976 7.74378 8.42982 6.99392 9.17782C6.24406 9.92582 5.82148 10.9407 5.81885 11.9998V12.0098Z" fill="white"/>
<path d="M7.64712 12.7008C7.61322 12.7121 7.57735 12.7163 7.54175 12.7131C7.50615 12.7098 7.47162 12.6992 7.44033 12.6819C7.40904 12.6647 7.38167 12.6411 7.35996 12.6127C7.33825 12.5843 7.32267 12.5517 7.3142 12.517C7.23688 12.1405 7.2457 11.7514 7.33998 11.3788C7.43426 11.0062 7.61156 10.6598 7.85863 10.3654C8.10571 10.071 8.41614 9.83632 8.76673 9.67885C9.11732 9.52139 9.49898 9.44524 9.88315 9.4561C10.334 9.46581 10.7738 9.59807 11.1552 9.8387C11.1849 9.85886 11.2101 9.88499 11.2291 9.91543C11.2482 9.94586 11.2606 9.97993 11.2658 10.0155C11.2709 10.051 11.2686 10.0872 11.259 10.1218C11.2494 10.1564 11.2326 10.1886 11.2099 10.2163C11.1623 10.2731 11.0956 10.3105 11.0224 10.3215C10.9492 10.3325 10.8744 10.3163 10.8123 10.276C10.4837 10.0772 10.1045 9.97782 9.72064 9.98997C9.33675 10.0021 8.96461 10.1253 8.64922 10.3444C8.33383 10.5636 8.0887 10.8695 7.94349 11.2251C7.79828 11.5807 7.75919 11.9707 7.83097 12.348C7.84697 12.4191 7.83729 12.4935 7.80363 12.5581C7.76998 12.6226 7.71453 12.6732 7.64712 12.7008Z" stroke="white" stroke-width="1.97872"/>
<path d="M3.46365 3.77613C3.66942 3.78807 3.87404 3.73791 4.05096 3.63217C4.22788 3.52644 4.36895 3.36999 4.45588 3.18311C4.54282 2.99623 4.57161 2.78753 4.53851 2.5841C4.50541 2.38066 4.41195 2.19187 4.27026 2.04218C4.12857 1.8925 3.94517 1.78883 3.74386 1.74463C3.54254 1.70043 3.33259 1.71774 3.14122 1.79429C2.94986 1.87085 2.78592 2.00314 2.67064 2.174C2.55536 2.34486 2.49407 2.5464 2.49472 2.75251C2.49075 2.88344 2.5127 3.01387 2.55932 3.13628C2.60593 3.25869 2.67629 3.37068 2.76634 3.46581C2.85638 3.56094 2.96435 3.63733 3.08402 3.69059C3.2037 3.74384 3.33271 3.77291 3.46365 3.77613Z" fill="white"/>
<path d="M4.50707 3.77637C4.38503 3.9212 4.23421 4.03907 4.06419 4.12252C3.89417 4.20596 3.70866 4.25316 3.51943 4.2611C3.33021 4.26904 3.14139 4.23757 2.96498 4.16866C2.78856 4.09975 2.6284 3.99493 2.49465 3.86083C1.99775 4.4422 1.93315 5.45089 2.17663 5.62977C3.05289 5.96744 4.02336 5.96744 4.89962 5.62977C5.16297 5.44095 5.03874 4.32792 4.50707 3.77637Z" fill="white"/>
</g>
</svg>
