<svg width="18" height="16" viewBox="0 0 18 16" fill="none" xmlns="http://www.w3.org/2000/svg">
<path d="M4.95099 6.68671C5.88604 6.68671 6.64405 5.82381 6.64405 4.75937C6.64405 3.69493 5.88604 2.83203 4.95099 2.83203C4.01594 2.83203 3.25793 3.69493 3.25793 4.75937C3.25793 5.82381 4.01594 6.68671 4.95099 6.68671Z" stroke="#3F78AE" stroke-width="1.08179" stroke-miterlimit="10"/>
<path d="M6.50405 7.74707C6.07137 8.11823 5.51964 8.32233 4.949 8.32233C4.37835 8.32233 3.82662 8.11823 3.39394 7.74707C2.61735 8.26374 1.98741 8.97143 1.56494 9.8018C1.92714 10.3621 2.42771 10.8201 3.01854 11.1317C3.60936 11.4433 4.2706 11.5981 4.9387 11.5812H4.95929C5.62802 11.5984 6.28995 11.4438 6.88149 11.1322C7.47304 10.8206 7.97431 10.3624 8.33717 9.8018C7.9134 8.97104 7.28203 8.26335 6.50405 7.74707Z" stroke="#3F78AE" stroke-width="1.08179" stroke-miterlimit="10"/>
<path d="M4.95099 6.68671C5.88604 6.68671 6.64405 5.82381 6.64405 4.75937C6.64405 3.69493 5.88604 2.83203 4.95099 2.83203C4.01594 2.83203 3.25793 3.69493 3.25793 4.75937C3.25793 5.82381 4.01594 6.68671 4.95099 6.68671Z" fill="#83AFDD"/>
<path d="M6.50405 7.74707C6.07137 8.11823 5.51964 8.32233 4.949 8.32233C4.37835 8.32233 3.82662 8.11823 3.39394 7.74707C2.61735 8.26374 1.98741 8.97143 1.56494 9.8018C1.92714 10.3621 2.42771 10.8201 3.01854 11.1317C3.60936 11.4433 4.2706 11.5981 4.9387 11.5812H4.95929C5.62802 11.5984 6.28995 11.4438 6.88149 11.1322C7.47304 10.8206 7.97431 10.3624 8.33717 9.8018C7.9134 8.97104 7.28203 8.26335 6.50405 7.74707Z" fill="#83AFDD"/>
<path d="M13.1395 6.68671C14.0745 6.68671 14.8325 5.82381 14.8325 4.75937C14.8325 3.69493 14.0745 2.83203 13.1395 2.83203C12.2044 2.83203 11.4464 3.69493 11.4464 4.75937C11.4464 5.82381 12.2044 6.68671 13.1395 6.68671Z" stroke="#3F78AE" stroke-width="1.08179" stroke-miterlimit="10"/>
<path d="M14.6924 7.74707C14.2597 8.11823 13.708 8.32233 13.1374 8.32233C12.5667 8.32233 12.015 8.11823 11.5823 7.74707C10.8057 8.26374 10.1758 8.97143 9.7533 9.8018C10.1155 10.3621 10.6161 10.8201 11.2069 11.1317C11.7977 11.4433 12.459 11.5981 13.1271 11.5812C13.7958 11.5984 14.4577 11.4438 15.0492 11.1322C15.6408 10.8206 16.1421 10.3624 16.5049 9.8018C16.0869 8.97349 15.4628 8.26602 14.6924 7.74707Z" stroke="#3F78AE" stroke-width="1.08179" stroke-miterlimit="10"/>
<path d="M13.1395 6.68671C14.0745 6.68671 14.8325 5.82381 14.8325 4.75937C14.8325 3.69493 14.0745 2.83203 13.1395 2.83203C12.2044 2.83203 11.4464 3.69493 11.4464 4.75937C11.4464 5.82381 12.2044 6.68671 13.1395 6.68671Z" fill="#83AFDD"/>
<path d="M14.6924 7.74707C14.2597 8.11823 13.708 8.32233 13.1374 8.32233C12.5667 8.32233 12.015 8.11823 11.5823 7.74707C10.8057 8.26374 10.1758 8.97143 9.7533 9.8018C10.1155 10.3621 10.6161 10.8201 11.2069 11.1317C11.7977 11.4433 12.459 11.5981 13.1271 11.5812C13.7958 11.5984 14.4577 11.4438 15.0492 11.1322C15.6408 10.8206 16.1421 10.3624 16.5049 9.8018C16.0869 8.97349 15.4628 8.26602 14.6924 7.74707Z" fill="#83AFDD"/>
<path d="M9.17371 6.66329C7.99084 6.66329 7.02795 5.56608 7.02795 4.22044C7.02795 2.87479 7.99084 1.77344 9.17371 1.77344C10.3566 1.77344 11.3195 2.87065 11.3195 4.22044C11.3195 5.57022 10.3566 6.66329 9.17371 6.66329Z" fill="#C35A9E"/>
<path d="M9.157 13.772C8.07165 13.7966 6.99844 13.5402 6.04195 13.0279C5.08546 12.5157 4.27831 11.7649 3.69921 10.8488L3.5 10.4927L3.69921 10.1325C4.36926 8.81203 5.37005 7.6867 6.6045 6.86572L6.92409 6.66699L7.21876 6.91128C7.76024 7.37615 8.45092 7.63181 9.16531 7.63181C9.87969 7.63181 10.5704 7.37615 11.1119 6.91128L11.4065 6.66699L11.7303 6.86572C12.964 7.68755 13.9646 8.81266 14.6355 10.1325L14.8348 10.4927L14.6355 10.8488C14.0558 11.7643 13.2486 12.5146 12.2922 13.0269C11.3359 13.5391 10.263 13.7958 9.17776 13.772H9.157Z" fill="white"/>
<path d="M11.4607 7.44922C10.8258 7.99452 10.0158 8.29443 9.178 8.29443C8.34019 8.29443 7.5302 7.99452 6.89527 7.44922C5.74864 8.2141 4.82053 9.26267 4.20166 10.4924C4.73657 11.3184 5.47596 11.9928 6.3484 12.4504C7.22085 12.9081 8.19686 13.1336 9.18215 13.1051H9.21535C10.2006 13.1336 11.1767 12.9081 12.0491 12.4504C12.9215 11.9928 13.6609 11.3184 14.1958 10.4924C13.5654 9.25767 12.6226 8.20862 11.4607 7.44922Z" fill="#C35A9E"/>
<path d="M9.15676 12.7162C8.27145 12.7384 7.39388 12.5467 6.59891 12.1574C5.80395 11.7681 5.11516 11.1927 4.59131 10.4804C5.14319 9.4667 5.91448 8.58836 6.84913 7.90918C7.51192 8.41419 8.32277 8.68776 9.15676 8.68776C9.99075 8.68776 10.8016 8.41419 11.4644 7.90918C12.3991 8.58836 13.1703 9.4667 13.7222 10.4804C13.2023 11.1969 12.5143 11.7754 11.7184 12.1651C10.9225 12.5549 10.043 12.7441 9.15676 12.7162Z" fill="#C35A9E"/>
</svg>
